<svg width="160" height="160" viewBox="0 0 160 160" fill="none" xmlns="http://www.w3.org/2000/svg">
<circle cx="80" cy="80" r="80" fill="#C89B73"/>
<path d="M85.8126 22.3899C84.9611 22.2999 84.2233 22.0276 83.5993 21.5731C82.9763 21.1082 82.5139 20.4661 82.212 19.6466C81.9101 18.8271 81.8206 17.8358 81.9436 16.6727C82.0336 15.8211 82.2227 15.0746 82.5111 14.433C82.8005 13.781 83.1828 13.2439 83.658 12.8216C84.1446 12.39 84.7179 12.083 85.3777 11.9008C86.0386 11.7081 86.7845 11.6557 87.6153 11.7435C88.2383 11.8094 88.7961 11.9471 89.2885 12.1566C89.782 12.3558 90.2008 12.6153 90.545 12.9352C90.8904 13.2448 91.1414 13.6021 91.2981 14.0072C91.4651 14.4134 91.5338 14.8564 91.5041 15.3363L89.3197 15.7355C89.3554 15.2982 89.2843 14.9284 89.1062 14.6261C88.9385 14.3248 88.6962 14.0839 88.3793 13.9034C88.0727 13.724 87.7221 13.6134 87.3275 13.5717C86.7667 13.5125 86.2753 13.5918 85.8532 13.8097C85.4323 14.0172 85.0847 14.3743 84.8107 14.8808C84.5481 15.3781 84.3745 16.0266 84.29 16.8262C84.2264 17.4285 84.2332 17.9596 84.3107 18.4193C84.3881 18.879 84.5256 19.2663 84.7234 19.5813C84.9315 19.8973 85.194 20.1455 85.511 20.3261C85.8394 20.4973 86.2165 20.6054 86.6423 20.6504C87.0992 20.6987 87.5021 20.6625 87.8509 20.5419C88.21 20.4223 88.5047 20.2172 88.735 19.9265C88.9652 19.6358 89.116 19.2527 89.1872 18.7772L87.2556 18.5731L87.4269 16.953L91.5549 17.3894L91.3556 19.2742L90.9918 22.7168L89.434 22.5521L89.7451 19.9073L89.4803 19.8793C89.2483 20.4848 88.9696 20.9857 88.6442 21.3818C88.3291 21.779 87.9368 22.0631 87.4672 22.234C87.008 22.406 86.4565 22.4579 85.8126 22.3899Z" fill="white"/>
<path d="M97.332 24.6824C96.6732 24.4801 96.1168 24.2109 95.6628 23.8749C95.2189 23.5419 94.8743 23.1521 94.6292 22.7054C94.3871 22.2487 94.2513 21.7482 94.2218 21.2038C94.1954 20.6495 94.2788 20.0579 94.4719 19.429C94.662 18.8101 94.9216 18.2671 95.2507 17.8002C95.5929 17.3263 95.9869 16.9502 96.4329 16.6721C96.8918 16.387 97.3981 16.2147 97.9516 16.1553C98.5051 16.0959 99.0913 16.1612 99.7103 16.3513C100.319 16.5383 100.823 16.8021 101.221 17.1428C101.628 17.4865 101.927 17.9006 102.117 18.3849C102.317 18.8724 102.401 19.417 102.369 20.019C102.347 20.624 102.199 21.2832 101.926 21.9966L95.7725 20.1561L96.1358 18.9732L101.016 20.4228L100.109 20.816C100.331 20.3053 100.425 19.8588 100.389 19.4765C100.364 19.0972 100.241 18.7863 100.02 18.5439C99.8096 18.3044 99.5446 18.1357 99.2252 18.0376C98.8458 17.9211 98.4808 17.9182 98.13 18.0289C97.7891 18.1428 97.4791 18.3698 97.1998 18.7101C96.9236 19.0404 96.7027 19.475 96.5372 20.0141C96.2766 20.8626 96.2697 21.5432 96.5164 22.056C96.7662 22.5587 97.1955 22.9036 97.8045 23.0906C98.084 23.1764 98.3293 23.2135 98.5404 23.2019C98.7646 23.1834 98.955 23.1326 99.1116 23.0496C99.2781 22.9696 99.4194 22.8655 99.5352 22.7373C99.6611 22.612 99.7685 22.4757 99.8575 22.3282L101.61 23.2924C101.426 23.6403 101.199 23.9364 100.927 24.1807C100.666 24.428 100.356 24.6171 99.9993 24.7478C99.6523 24.8816 99.2558 24.9455 98.8097 24.9396C98.3636 24.9337 97.8711 24.848 97.332 24.6824Z" fill="white"/>
<path d="M105.85 28.0276C105.011 27.6278 104.497 27.1168 104.307 26.4945C104.132 25.8672 104.271 25.0775 104.725 24.1254L106.274 20.873L105.214 20.3676L106.004 18.8182L106.697 19.1484C107.003 19.2827 107.254 19.3386 107.45 19.3162C107.65 19.2844 107.83 19.1502 107.989 18.9137L108.616 17.9979L109.776 18.5504L108.987 20.2049L110.868 21.1011L110.08 22.7555L108.199 21.8594L106.723 24.9562C106.562 25.2956 106.523 25.5836 106.607 25.8202C106.704 26.0519 106.914 26.2441 107.234 26.3969C107.413 26.4822 107.592 26.5442 107.77 26.5829C107.962 26.6166 108.138 26.6249 108.296 26.6079L107.4 28.4886C107.063 28.4437 106.765 28.3769 106.506 28.2884C106.257 28.2044 106.038 28.1174 105.85 28.0276Z" fill="white"/>
<path d="M113.449 32.2858L118.307 25.6505L120.127 26.983L115.269 33.6183L113.449 32.2858ZM119.933 25.3655C119.579 25.1064 119.361 24.8301 119.278 24.5365C119.204 24.2491 119.271 23.9622 119.481 23.6757C119.691 23.3892 119.944 23.238 120.24 23.2221C120.545 23.2123 120.875 23.337 121.228 23.5961C121.591 23.8613 121.809 24.1377 121.883 24.4251C121.966 24.7186 121.903 25.0086 121.693 25.2951C121.483 25.5816 121.226 25.7297 120.921 25.7395C120.625 25.7554 120.295 25.6308 119.933 25.3655Z" fill="white"/>
<path d="M117.524 35.2404L120.951 31.6689L123.217 29.3067L124.551 30.5864L122.783 32.4066L122.998 32.6126C123.522 32.262 124.012 32.023 124.467 31.8954C124.93 31.7751 125.37 31.7771 125.786 31.9014C126.209 32.0182 126.609 32.2574 126.986 32.6189C127.672 33.2768 127.96 34.0168 127.852 34.8389C127.75 35.6534 127.208 36.573 126.225 37.5978L123.231 40.7173L121.592 39.1447L124.423 36.1948C125.016 35.5769 125.356 35.0418 125.442 34.5895C125.536 34.1297 125.406 33.7298 125.052 33.39C124.751 33.1008 124.408 32.9528 124.024 32.9459C123.654 32.9388 123.265 33.0428 122.856 33.2581C122.461 33.473 122.072 33.7728 121.689 34.1574L119.151 36.8022L117.524 35.2404Z" fill="white"/>
<path d="M129.152 48.6182L137.927 43.152L139.119 45.0665L130.344 50.5327L129.152 48.6182ZM134.719 41.5881L136.328 40.5859L140.718 47.6325L139.109 48.6347L134.719 41.5881Z" fill="white"/>
<path d="M133.593 57.5428C133.279 56.7801 133.152 56.0475 133.212 55.3448C133.282 54.6382 133.543 53.9993 133.997 53.4281C134.46 52.853 135.136 52.3822 136.024 52.0158C136.912 51.6494 137.718 51.5089 138.442 51.5942C139.171 51.6891 139.799 51.9664 140.328 52.4262C140.866 52.8819 141.288 53.4815 141.595 54.2248C141.909 54.9874 142.037 55.7201 141.976 56.4227C141.92 57.135 141.66 57.7788 141.197 58.3539C140.744 58.9251 140.073 59.3938 139.185 59.7602C138.277 60.1346 137.46 60.2743 136.731 60.1793C136.003 60.0844 135.373 59.8022 134.84 59.3329C134.312 58.8731 133.896 58.2764 133.593 57.5428ZM135.167 56.9615C135.322 57.338 135.538 57.6159 135.816 57.7952C136.097 57.9841 136.437 58.0697 136.836 58.0518C137.249 58.0396 137.707 57.9299 138.209 57.7229C138.74 57.5038 139.159 57.2462 139.466 56.9501C139.787 56.6596 139.988 56.3394 140.069 55.9895C140.16 55.6355 140.122 55.2559 139.955 54.8504C139.804 54.4836 139.588 54.2057 139.306 54.0167C139.029 53.8374 138.689 53.7519 138.285 53.7601C137.882 53.7683 137.425 53.878 136.913 54.089C136.092 54.4275 135.535 54.8437 135.242 55.3375C134.953 55.8409 134.928 56.3823 135.167 56.9615Z" fill="white"/>
<path d="M136.572 66.6942C136.373 65.7542 136.541 64.9823 137.075 64.3785C137.619 63.7725 138.54 63.3324 139.838 63.0582L144.236 62.1289L144.703 64.3358L140.565 65.2101C139.788 65.3742 139.235 65.6085 138.904 65.9132C138.586 66.2259 138.478 66.6223 138.579 67.1025C138.639 67.3886 138.758 67.6198 138.934 67.7961C139.122 67.9804 139.36 68.1222 139.648 68.2215C139.946 68.3187 140.277 68.3714 140.642 68.3797C141.007 68.3881 141.4 68.3531 141.821 68.2748L145.376 67.5236L145.842 69.7305L141.107 70.731L137.796 71.4305L137.418 69.6374L139.977 69.0966L139.919 68.8207C139.245 68.8137 138.679 68.7359 138.22 68.5872C137.764 68.4488 137.401 68.2213 137.132 67.9047C136.864 67.5983 136.677 67.1948 136.572 66.6942Z" fill="white"/>
<path d="M138.037 77.951C138.012 77.2413 138.095 76.6167 138.286 76.0772C138.476 75.5482 138.753 75.0997 139.117 74.7318C139.48 74.364 139.914 74.0824 140.419 73.8873C140.935 73.6917 141.501 73.5833 142.117 73.5619C142.764 73.5395 143.356 73.6077 143.895 73.7667C144.444 73.9357 144.923 74.1908 145.332 74.5318C145.741 74.8729 146.064 75.2953 146.301 75.7991C146.538 76.3133 146.668 76.9044 146.691 77.5723C146.715 78.2611 146.621 78.8548 146.408 79.3533C146.196 79.8622 145.897 80.2748 145.511 80.5913C145.125 80.9077 144.667 81.1273 144.139 81.2501L143.425 79.1903C143.758 79.1579 144.037 79.0646 144.261 78.9105C144.497 78.7665 144.668 78.5725 144.774 78.3285C144.881 78.0949 144.929 77.832 144.919 77.5398C144.909 77.2476 144.843 76.9887 144.72 76.763C144.597 76.5479 144.419 76.366 144.184 76.2174C143.959 76.0789 143.689 75.9733 143.373 75.9007C143.058 75.8385 142.696 75.8145 142.289 75.8286C141.726 75.8482 141.248 75.9379 140.857 76.0977C140.476 76.2677 140.186 76.5024 139.988 76.8018C139.8 77.101 139.713 77.4749 139.729 77.9237C139.743 78.3307 139.838 78.6565 140.014 78.9012C140.189 79.1459 140.404 79.3213 140.659 79.4274C140.924 79.5331 141.198 79.5968 141.48 79.6183L141.126 81.6055C140.718 81.5778 140.328 81.4869 139.957 81.3326C139.596 81.1779 139.275 80.9487 138.993 80.645C138.711 80.3518 138.484 79.9835 138.312 79.5402C138.15 79.0965 138.058 78.5668 138.037 77.951Z" fill="white"/>
<path d="M138.283 84.0447L143.324 84.7579L149.342 85.6094L149.024 87.8583L146.527 87.505C146.32 87.4757 146.099 87.4339 145.864 87.3796C145.628 87.3356 145.388 87.2754 145.146 87.1989C144.902 87.1328 144.659 87.0615 144.417 86.985C144.173 86.9189 143.941 86.8439 143.721 86.76L143.675 87.0857C144.203 87.308 144.647 87.5555 145.01 87.8282C145.381 88.1127 145.644 88.4506 145.8 88.8417C145.965 89.2343 146.011 89.6943 145.937 90.2216C145.802 91.1729 145.371 91.8343 144.643 92.206C143.914 92.588 142.867 92.6824 141.502 92.4893L137.175 91.8771L137.493 89.6282L141.479 90.1922C142.338 90.3136 142.986 90.2788 143.424 90.0877C143.871 89.9084 144.131 89.5654 144.203 89.0587C144.261 88.6452 144.185 88.2864 143.975 87.9824C143.765 87.6785 143.452 87.4286 143.037 87.2327C142.632 87.0383 142.162 86.8928 141.628 86.796L137.967 86.2781L138.283 84.0447Z" fill="white"/>
<path d="M139.17 102.235L140.904 101.137L141.68 103.215L141.808 103.233L142.871 101.278L144.514 102.572L142.723 103.984L142.752 104.08L144.952 104.482L144.171 106.447L142.295 105.23L142.202 105.294L142.553 107.507L140.444 107.343L141.021 105.212L140.91 105.151L138.926 106.116L138.418 104.127L140.649 103.986L140.695 103.869L139.17 102.235Z" fill="white"/>
<path d="M127.409 113.316C127.913 112.624 128.518 112.121 129.224 111.809C129.939 111.503 130.726 111.424 131.587 111.573C132.447 111.722 133.35 112.141 134.295 112.83C134.987 113.334 135.539 113.872 135.95 114.443C136.369 115.02 136.642 115.62 136.77 116.243C136.9 116.88 136.878 117.53 136.706 118.192C136.541 118.861 136.213 119.533 135.721 120.208C135.352 120.714 134.954 121.128 134.526 121.449C134.106 121.776 133.672 122.009 133.222 122.147C132.782 122.291 132.347 122.329 131.918 122.262C131.482 122.203 131.064 122.04 130.664 121.774L131.412 119.684C131.773 119.934 132.129 120.057 132.48 120.055C132.824 120.06 133.154 119.971 133.469 119.787C133.778 119.612 134.049 119.364 134.283 119.043C134.615 118.587 134.793 118.122 134.815 117.648C134.846 117.179 134.711 116.7 134.41 116.209C134.111 115.733 133.637 115.258 132.987 114.784C132.498 114.427 132.035 114.167 131.598 114.004C131.161 113.841 130.757 113.766 130.385 113.779C130.008 113.801 129.661 113.904 129.346 114.088C129.034 114.287 128.751 114.559 128.499 114.905C128.228 115.276 128.058 115.643 127.988 116.005C127.911 116.376 127.941 116.734 128.078 117.079C128.214 117.424 128.47 117.746 128.846 118.046L129.99 116.476L131.306 117.436L128.861 120.79L127.33 119.674L124.532 117.635L125.455 116.369L127.588 117.963L127.745 117.748C127.337 117.243 127.043 116.751 126.863 116.271C126.677 115.8 126.628 115.318 126.715 114.826C126.796 114.342 127.028 113.839 127.409 113.316Z" fill="white"/>
<path d="M119.654 122.152C120.159 121.683 120.67 121.335 121.188 121.11C121.698 120.891 122.208 120.787 122.717 120.798C123.234 120.816 123.735 120.949 124.221 121.195C124.715 121.449 125.186 121.817 125.634 122.298C126.075 122.772 126.416 123.268 126.656 123.786C126.896 124.319 127.025 124.849 127.043 125.374C127.061 125.914 126.957 126.438 126.733 126.948C126.508 127.457 126.158 127.932 125.684 128.373C125.218 128.808 124.738 129.112 124.245 129.287C123.743 129.468 123.235 129.52 122.721 129.443C122.198 129.373 121.685 129.174 121.179 128.845C120.666 128.524 120.169 128.067 119.687 127.473L124.355 123.062L125.198 123.967L121.505 127.471L121.617 126.489C121.949 126.937 122.289 127.241 122.638 127.401C122.979 127.568 123.31 127.617 123.63 127.547C123.943 127.484 124.221 127.339 124.466 127.111C124.756 126.841 124.941 126.526 125.02 126.166C125.092 125.814 125.05 125.432 124.895 125.02C124.746 124.616 124.48 124.208 124.096 123.795C123.491 123.146 122.905 122.8 122.337 122.757C121.777 122.723 121.264 122.922 120.797 123.357C120.584 123.556 120.429 123.75 120.333 123.939C120.238 124.142 120.187 124.332 120.18 124.51C120.166 124.694 120.186 124.868 120.239 125.033C120.285 125.204 120.349 125.365 120.433 125.516L118.722 126.553C118.513 126.22 118.37 125.875 118.294 125.518C118.21 125.167 118.201 124.805 118.266 124.431C118.323 124.063 118.466 123.688 118.694 123.304C118.921 122.921 119.242 122.537 119.654 122.152Z" fill="white"/>
<path d="M112.492 127.876C113.257 127.348 113.956 127.156 114.59 127.302C115.221 127.463 115.837 127.977 116.436 128.845L118.484 131.809L119.45 131.141L120.4 132.599L119.768 133.035C119.499 133.233 119.326 133.423 119.248 133.604C119.176 133.793 119.202 134.016 119.328 134.272L119.81 135.272L118.753 136.002L117.711 134.494L115.997 135.678L114.956 134.17L116.67 132.986L114.72 130.164C114.506 129.854 114.276 129.677 114.029 129.632C113.779 129.601 113.508 129.687 113.216 129.889C113.053 130.001 112.91 130.125 112.788 130.261C112.663 130.411 112.568 130.558 112.504 130.704L111.32 128.99C111.527 128.72 111.733 128.495 111.939 128.315C112.136 128.141 112.32 127.995 112.492 127.876Z" fill="white"/>
<path d="M105.009 132.347L108.34 139.866L106.277 140.78L102.947 133.26L105.009 132.347ZM107.776 141.418C108.177 141.24 108.525 141.189 108.821 141.263C109.107 141.342 109.322 141.544 109.466 141.869C109.61 142.193 109.615 142.488 109.481 142.753C109.337 143.022 109.065 143.245 108.664 143.423C108.254 143.605 107.905 143.656 107.619 143.577C107.323 143.503 107.104 143.303 106.96 142.979C106.816 142.654 106.816 142.357 106.959 142.088C107.093 141.823 107.366 141.6 107.776 141.418Z" fill="white"/>
<path d="M100.436 134.4L101.818 139.154L102.732 142.297L100.957 142.813L100.264 140.372L99.9778 140.455C100.019 141.085 99.9817 141.629 99.8648 142.087C99.7378 142.548 99.5165 142.927 99.2009 143.226C98.8881 143.534 98.4811 143.761 97.9797 143.907C97.0672 144.172 96.282 144.052 95.6242 143.548C94.9692 143.053 94.4435 142.124 94.0471 140.76L92.8403 136.609L95.0213 135.975L96.1625 139.9C96.4015 140.723 96.6953 141.284 97.0438 141.585C97.3953 141.896 97.8066 141.983 98.2779 141.846C98.679 141.73 98.9785 141.507 99.1764 141.177C99.3672 140.861 99.4715 140.472 99.4895 140.01C99.5003 139.561 99.435 139.074 99.2934 138.55L98.2703 135.03L100.436 134.4Z" fill="white"/>
<path d="M83.0208 137.775L83.3573 148.108L81.1029 148.182L80.7664 137.849L83.0208 137.775ZM86.3172 146.115L86.3789 148.01L78.0813 148.28L78.0197 146.386L86.3172 146.115Z" fill="white"/>
<path d="M72.9984 137.151C73.8162 137.26 74.5143 137.516 75.0927 137.919C75.6697 138.333 76.0922 138.879 76.3601 139.558C76.6267 140.246 76.6967 141.067 76.57 142.019C76.4433 142.971 76.162 143.74 75.726 144.325C75.2797 144.908 74.7254 145.313 74.063 145.541C73.3992 145.78 72.6688 145.846 71.8717 145.74C71.0539 145.631 70.3558 145.375 69.7774 144.971C69.1887 144.566 68.761 144.02 68.4944 143.331C68.2265 142.653 68.1558 141.837 68.2825 140.885C68.412 139.912 68.6998 139.134 69.1461 138.551C69.5924 137.967 70.152 137.562 70.8247 137.336C71.4871 137.108 72.2117 137.046 72.9984 137.151ZM72.7153 138.804C72.3116 138.75 71.9627 138.799 71.6688 138.949C71.3645 139.099 71.1203 139.35 70.9362 139.705C70.7403 140.069 70.6066 140.52 70.535 141.058C70.4592 141.628 70.4729 142.119 70.5758 142.533C70.667 142.956 70.8438 143.291 71.1061 143.536C71.367 143.792 71.7148 143.949 72.1496 144.007C72.543 144.059 72.8918 144.011 73.1961 143.862C73.49 143.711 73.7342 143.459 73.9287 143.106C74.1232 142.752 74.2569 142.301 74.3299 141.753C74.447 140.873 74.365 140.182 74.084 139.681C73.7926 139.179 73.3364 138.887 72.7153 138.804Z" fill="white"/>
<path d="M63.6009 135.164C64.5145 135.461 65.0994 135.992 65.3558 136.756C65.609 137.53 65.5303 138.548 65.1199 139.809L63.7285 144.084L61.5836 143.386L62.8926 139.364C63.1382 138.61 63.2116 138.013 63.1127 137.574C63.0007 137.143 62.7113 136.851 62.2446 136.699C61.9666 136.608 61.7072 136.595 61.4666 136.66C61.2128 136.731 60.9711 136.866 60.7413 137.066C60.5083 137.276 60.2972 137.537 60.1079 137.848C59.9185 138.16 59.7527 138.518 59.6102 138.922L58.4855 142.378L56.3406 141.679L57.8386 137.077L58.8858 133.86L60.6285 134.427L59.8189 136.914L60.087 137.001C60.4296 136.421 60.7798 135.97 61.1375 135.647C61.4852 135.321 61.8635 135.12 62.2725 135.044C62.6715 134.965 63.1143 135.005 63.6009 135.164Z" fill="white"/>
<path d="M53.1031 130.801C53.7297 131.135 54.2288 131.519 54.6005 131.954C54.963 132.384 55.2124 132.848 55.3489 133.347C55.4853 133.846 55.5115 134.363 55.4274 134.898C55.3384 135.442 55.1489 135.986 54.8591 136.53C54.5544 137.101 54.1985 137.58 53.7913 137.966C53.37 138.357 52.9093 138.644 52.4093 138.827C51.9093 139.01 51.3819 139.078 50.8272 139.031C50.2633 138.979 49.6865 138.796 49.0968 138.481C48.4886 138.157 48.022 137.778 47.697 137.344C47.3628 136.906 47.1554 136.44 47.0749 135.947C46.9943 135.455 47.0333 134.949 47.1917 134.43L49.3322 134.843C49.1934 135.148 49.1345 135.436 49.1554 135.708C49.1622 135.983 49.2445 136.229 49.4024 136.443C49.5511 136.652 49.7544 136.826 50.0125 136.963C50.2705 137.101 50.5279 137.173 50.7846 137.18C51.0322 137.182 51.2791 137.118 51.5254 136.989C51.7576 136.864 51.9843 136.683 52.2054 136.446C52.4173 136.204 52.619 135.903 52.8106 135.544C53.0759 135.046 53.2374 134.588 53.2951 134.169C53.3387 133.755 53.2806 133.386 53.1208 133.065C52.9562 132.752 52.6757 132.49 52.2795 132.279C51.9201 132.087 51.5906 132.006 51.2908 132.036C50.991 132.065 50.7315 132.163 50.5122 132.33C50.288 132.507 50.0958 132.712 49.9355 132.946L48.3929 131.644C48.6214 131.305 48.8953 131.013 49.2147 130.769C49.5292 130.534 49.8885 130.371 50.2927 130.278C50.6877 130.181 51.1201 130.169 51.59 130.242C52.055 130.325 52.5594 130.511 53.1031 130.801Z" fill="white"/>
<path d="M47.7837 128.007L44.6417 132.013L40.8906 136.795L39.1035 135.393L40.66 133.409C40.7889 133.244 40.9357 133.074 41.1004 132.898C41.2569 132.716 41.4289 132.539 41.6164 132.367C41.7957 132.189 41.9792 132.015 42.1667 131.843C42.3461 131.666 42.5272 131.502 42.71 131.354L42.4512 131.151C41.9946 131.496 41.5576 131.757 41.1401 131.934C40.708 132.113 40.2837 132.171 39.8672 132.11C39.4443 132.057 39.0233 131.866 38.6042 131.537C37.8483 130.944 37.4917 130.24 37.5345 129.424C37.569 128.602 38.0117 127.648 38.8624 126.564L41.5597 123.125L43.3468 124.527L40.8622 127.694C40.3273 128.376 40.0327 128.955 39.9785 129.43C39.9097 129.907 40.0766 130.303 40.4792 130.619C40.8079 130.877 41.1564 130.991 41.5247 130.961C41.893 130.932 42.2659 130.786 42.6434 130.525C43.0145 130.272 43.3758 129.938 43.7274 129.524L46.0089 126.615L47.7837 128.007Z" fill="white"/>
<path d="M31.5805 119.67L31.6669 121.72L29.479 121.356L29.4003 121.458L30.5637 123.354L28.6228 124.134L28.2927 121.877L28.195 121.854L26.749 123.56L25.4353 121.903L27.4262 120.885L27.4169 120.772L25.3239 119.973L26.5181 118.226L28.0768 119.789L28.1848 119.723L28.3388 117.522L30.3155 118.074L29.3256 120.078L29.4035 120.176L31.5805 119.67Z" fill="white"/>
<path d="M27.8347 103.949C28.1831 104.732 28.3169 105.506 28.2359 106.274C28.1454 107.046 27.8211 107.768 27.2629 108.44C26.7047 109.111 25.8914 109.685 24.823 110.161C24.0408 110.51 23.2999 110.72 22.6001 110.791C21.8909 110.867 21.2345 110.805 20.631 110.605C20.0137 110.4 19.461 110.058 18.9729 109.578C18.4752 109.102 18.0563 108.483 17.7164 107.72C17.4614 107.147 17.3014 106.595 17.2362 106.064C17.1615 105.537 17.1765 105.045 17.281 104.587C17.3761 104.133 17.5597 103.737 17.8319 103.398C18.0998 103.05 18.449 102.769 18.8793 102.554L20.3185 104.245C19.9221 104.433 19.6376 104.68 19.4651 104.986C19.2883 105.282 19.2011 105.612 19.2035 105.977C19.2017 106.332 19.2815 106.691 19.443 107.053C19.6725 107.568 19.9872 107.954 20.3872 108.21C20.7776 108.471 21.2607 108.593 21.8364 108.576C22.3983 108.555 23.0465 108.38 23.781 108.053C24.3343 107.807 24.7905 107.535 25.1497 107.238C25.5089 106.94 25.7753 106.627 25.9489 106.298C26.1182 105.96 26.2017 105.609 26.1992 105.244C26.183 104.874 26.0878 104.493 25.9136 104.102C25.7266 103.682 25.4936 103.352 25.2145 103.11C24.9312 102.859 24.6061 102.707 24.2391 102.653C23.8722 102.599 23.4651 102.661 23.0178 102.837L23.8083 104.611L22.3202 105.274L20.631 101.482L22.3623 100.711L25.5245 99.3025L26.1619 100.733L23.7167 101.788L23.8251 102.032C24.4654 101.929 25.0385 101.92 25.5443 102.003C26.0459 102.077 26.4882 102.274 26.8713 102.595C27.2501 102.907 27.5712 103.358 27.8347 103.949Z" fill="white"/>
<path d="M24.0503 92.814C24.2045 93.4857 24.2496 94.1022 24.1856 94.6633C24.1192 95.2143 23.9539 95.7076 23.6896 96.1432C23.4151 96.5812 23.0496 96.9491 22.5929 97.2468C22.126 97.5468 21.572 97.7704 20.9308 97.9176C20.2998 98.0625 19.6998 98.1091 19.1308 98.0576C18.5493 97.9982 18.0266 97.845 17.5628 97.5979C17.0864 97.343 16.6841 96.9907 16.3559 96.541C16.0276 96.0914 15.7911 95.551 15.6462 94.92C15.5037 94.2991 15.4805 93.7312 15.5766 93.2163C15.6703 92.6912 15.8795 92.2254 16.204 91.8187C16.5262 91.4019 16.9559 91.0568 17.4931 90.7835C18.028 90.5 18.6728 90.2984 19.4275 90.1787L20.9102 96.4277L19.7041 96.7045L18.5193 91.7533L19.3135 92.3424C18.76 92.4052 18.3266 92.5475 18.0133 92.7695C17.6976 92.9812 17.4899 93.2432 17.3901 93.5554C17.288 93.8574 17.2744 94.1712 17.3491 94.4969C17.4379 94.8837 17.618 95.2013 17.8893 95.4497C18.1583 95.688 18.5099 95.843 18.9442 95.9147C19.3684 95.9888 19.8553 95.9627 20.4049 95.8365C21.27 95.6379 21.8629 95.3036 22.1836 94.8336C22.4941 94.3659 22.5781 93.8216 22.4355 93.2007C22.3701 92.9158 22.2796 92.6847 22.1639 92.5077C22.0358 92.3229 21.8966 92.1834 21.7465 92.0893C21.5939 91.985 21.4332 91.9148 21.2642 91.8786C21.0928 91.8322 20.921 91.8073 20.7488 91.804L20.7077 89.8045C21.1006 89.7893 21.4708 89.8383 21.8182 89.9514C22.1632 90.0543 22.4816 90.2276 22.7733 90.4714C23.0626 90.705 23.3163 91.0164 23.5342 91.4057C23.7521 91.7949 23.9242 92.2644 24.0503 92.814Z" fill="white"/>
<path d="M22.6872 83.7869C22.7615 84.7133 22.5768 85.4143 22.1331 85.8899C21.6781 86.356 20.9249 86.6312 19.8736 86.7155L16.2824 87.0037L16.3763 88.1747L14.6394 88.267L14.5781 87.5019C14.5409 87.1696 14.4636 86.9244 14.3462 86.7662C14.2183 86.6088 14.0122 86.5206 13.7278 86.5015L12.621 86.4175L12.5183 85.1371L14.3451 84.9905L14.1785 82.9139L16.0053 82.7673L16.1719 84.844L19.5914 84.5696C19.9661 84.5395 20.2349 84.4289 20.3976 84.2377C20.5491 84.037 20.6107 83.7597 20.5823 83.4058C20.5664 83.208 20.5306 83.0223 20.4747 82.8487C20.4076 82.6655 20.327 82.5096 20.2329 82.3809L22.3096 82.2143C22.4395 82.5286 22.531 82.8199 22.5839 83.088C22.6361 83.3457 22.6705 83.5787 22.6872 83.7869Z" fill="white"/>
<path d="M22.5642 74.962L14.3875 74.0844L14.6282 71.8417L22.8049 72.7192L22.5642 74.962ZM13.3259 72.8204C13.2791 73.2565 13.1494 73.5839 12.9369 73.8027C12.7255 74.0111 12.4432 74.0963 12.0902 74.0584C11.7372 74.0205 11.4795 73.8773 11.3171 73.6289C11.1559 73.37 11.0986 73.0225 11.1454 72.5864C11.1933 72.1399 11.323 71.8125 11.5344 71.6042C11.7469 71.3854 12.0297 71.295 12.3827 71.3329C12.7358 71.3707 12.9929 71.5191 13.1542 71.778C13.3166 72.0265 13.3738 72.374 13.3259 72.8204Z" fill="white"/>
<path d="M23.0715 69.9816L18.2639 68.8038L15.0841 68.0248L15.5239 66.2296L17.9849 66.8486L18.0557 66.5595C17.4896 66.281 17.0373 65.9767 16.6989 65.6465C16.3629 65.3062 16.1446 64.9248 16.0438 64.5023C15.9329 64.0773 15.9395 63.6113 16.0638 63.1041C16.2899 62.1811 16.7859 61.5608 17.5518 61.2431C18.3076 60.9229 19.3752 60.9318 20.7546 61.2697L24.9537 62.2984L24.4133 64.5045L20.4424 63.5317C19.6107 63.3279 18.9774 63.3018 18.5425 63.4533C18.0974 63.6023 17.8165 63.9152 17.6997 64.3919C17.6003 64.7976 17.6439 65.1684 17.8303 65.5044C18.0092 65.8278 18.2942 66.1126 18.6854 66.359C19.0689 66.5927 19.5232 66.7792 20.0481 66.9186L23.6082 67.7907L23.0715 69.9816Z" fill="white"/>
<path d="M28.8527 53.213L19.7406 48.3295L20.806 46.3414L29.9182 51.2249L28.8527 53.213ZM19.9831 51.8894L18.3125 50.9941L22.2341 43.6768L23.9047 44.5721L19.9831 51.8894Z" fill="white"/>
<path d="M34.3648 44.9284C33.8611 45.5817 33.2897 46.0576 32.6508 46.3561C32.0035 46.6483 31.3193 46.7405 30.598 46.6327C29.8685 46.5185 29.1233 46.1681 28.3625 45.5815C27.6017 44.9948 27.0774 44.3664 26.7898 43.6963C26.5085 43.0179 26.4351 42.3349 26.5696 41.6475C26.6958 40.9536 27.0044 40.2883 27.4954 39.6515C27.9991 38.9982 28.5705 38.5223 29.2094 38.2237C29.8548 37.9169 30.5422 37.8206 31.2717 37.9348C31.993 38.0426 32.734 38.3898 33.4949 38.9764C34.2722 39.5758 34.8016 40.2147 35.0828 40.8931C35.3641 41.5716 35.4343 42.2586 35.2935 42.9544C35.159 43.6419 34.8494 44.2999 34.3648 44.9284ZM33.0758 43.8553C33.3244 43.5328 33.4572 43.2067 33.4742 42.8769C33.4975 42.5388 33.4017 42.2012 33.1869 41.8642C32.9702 41.5125 32.6468 41.1708 32.2168 40.8392C31.7619 40.4885 31.3296 40.2541 30.9197 40.1358C30.5079 40.0029 30.13 39.9885 29.7861 40.0925C29.4339 40.1901 29.1238 40.4126 28.856 40.76C28.6137 41.0742 28.4809 41.4004 28.4576 41.7384C28.4407 42.0682 28.5364 42.4058 28.7449 42.7511C28.9533 43.0965 29.2767 43.4381 29.715 43.7761C30.4179 44.3181 31.0566 44.5929 31.6309 44.6005C32.2115 44.5999 32.6932 44.3515 33.0758 43.8553Z" fill="white"/>
<path d="M40.7912 37.7839C40.0775 38.427 39.3255 38.6689 38.5352 38.5095C37.738 38.3424 36.8954 37.7662 36.0076 36.781L32.998 33.4414L34.6737 31.9314L37.5049 35.0732C38.0362 35.6628 38.5166 36.0242 38.9459 36.1574C39.376 36.2759 39.7733 36.1708 40.1379 35.8423C40.3551 35.6465 40.4959 35.4283 40.5601 35.1876C40.6252 34.9322 40.6285 34.6551 40.5701 34.3563C40.5047 34.0498 40.3842 33.7367 40.2085 33.417C40.0329 33.0973 39.8057 32.7749 39.5268 32.4499L37.094 29.7503L38.7696 28.2403L42.0099 31.8359L44.2749 34.3493L42.9134 35.5762L41.1623 33.6329L40.9528 33.8217C41.2846 34.4083 41.5011 34.9371 41.6023 35.4082C41.7113 35.8723 41.6964 36.3004 41.5578 36.6924C41.4268 37.0775 41.1713 37.4413 40.7912 37.7839Z" fill="white"/>
<path d="M49.81 30.8536C49.2083 31.2306 48.6264 31.4721 48.0642 31.5779C47.5108 31.6782 46.9839 31.6633 46.4834 31.5333C45.9829 31.4033 45.5216 31.1686 45.0995 30.8293C44.6718 30.4811 44.2944 30.046 43.9672 29.5239C43.6234 28.9753 43.3853 28.4282 43.2529 27.8826C43.1239 27.3227 43.1044 26.7803 43.1946 26.2555C43.2847 25.7307 43.4883 25.2396 43.8055 24.782C44.1315 24.3189 44.5776 23.91 45.144 23.5551C45.728 23.1891 46.2889 22.9731 46.8268 22.9072C47.3736 22.8357 47.8806 22.8877 48.3479 23.0631C48.8153 23.2385 49.2346 23.5242 49.6059 23.92L48.1815 25.5705C47.9864 25.2984 47.7659 25.1039 47.52 24.9868C47.2774 24.8554 47.0239 24.8048 46.7594 24.835C46.5037 24.8596 46.252 24.9496 46.0042 25.1048C45.7565 25.2601 45.5657 25.4474 45.4321 25.6667C45.3072 25.8805 45.2394 26.1263 45.2287 26.4042C45.2213 26.6676 45.2653 26.9543 45.3609 27.2641C45.4653 27.5684 45.6256 27.8931 45.8419 28.2382C46.1413 28.716 46.4584 29.0843 46.793 29.3429C47.1309 29.5871 47.4792 29.7201 47.8378 29.7418C48.1909 29.7547 48.5578 29.6419 48.9383 29.4034C49.2834 29.1872 49.5177 28.9417 49.6414 28.667C49.765 28.3924 49.809 28.1184 49.7732 27.845C49.7319 27.5628 49.6497 27.2939 49.5265 27.0383L51.4235 26.3487C51.6044 26.716 51.7211 27.0988 51.7736 27.4972C51.8206 27.8868 51.7834 28.2798 51.6621 28.6763C51.5497 29.0671 51.3448 29.4482 51.0474 29.8193C50.7446 30.1817 50.3321 30.5264 49.81 30.8536Z" fill="white"/>
<path d="M54.8936 27.6249L52.9888 22.9038L50.7148 17.2676L52.8212 16.4178L53.7647 18.7565C53.8429 18.9502 53.9172 19.1623 53.9877 19.3929C54.0679 19.6195 54.1355 19.8569 54.1905 20.1049C54.2552 20.3491 54.3151 20.5951 54.3702 20.8432C54.4349 21.0873 54.486 21.3257 54.5235 21.5583L54.8286 21.4352C54.7571 20.8673 54.7488 20.3582 54.8037 19.9082C54.8644 19.4446 55.0251 19.0475 55.2859 18.7171C55.5428 18.377 55.9182 18.1073 56.4121 17.908C57.303 17.5485 58.0914 17.5908 58.7773 18.0348C59.4728 18.4748 60.0785 19.334 60.5942 20.6123L62.2294 24.6652L60.123 25.515L58.6168 21.7817C58.2925 20.9779 57.938 20.4341 57.5532 20.1502C57.1742 19.8527 56.7474 19.7996 56.2729 19.9911C55.8855 20.1474 55.6128 20.3925 55.4548 20.7265C55.2968 21.0605 55.2369 21.4563 55.2751 21.9138C55.3094 22.3617 55.4184 22.8413 55.6022 23.3527L56.9854 26.7809L54.8936 27.6249Z" fill="white"/>
<path d="M70.2007 17.757L68.3828 16.8047L69.794 15.0936L69.7448 14.9742L67.521 15.0314L67.8188 12.9612L69.9375 13.806L70.0059 13.7326L69.2536 11.6266L71.3458 11.3195L71.2303 13.553L71.3324 13.6013L73.0726 12.1902L73.9859 14.0985L71.8526 14.6649L71.8553 14.7911L73.6831 16.0269L72.2155 17.4613L70.9767 15.6008L70.8527 15.619L70.2007 17.757Z" fill="white"/>
<circle cx="80" cy="79" r="40" fill="white"/>
<path d="M95.7137 86.8577V85.4291C95.7137 81.2614 94.0581 77.2645 91.1111 74.3175C88.1641 71.3705 84.1671 69.7148 79.9994 69.7148C75.8318 69.7148 71.8348 71.3705 68.8878 74.3175C65.9408 77.2645 64.2852 81.2614 64.2852 85.4291V86.8577" stroke="#C89B73" stroke-width="1.5" stroke-linecap="round" stroke-linejoin="round"/>
<path d="M98.5706 86.8574H61.4277L62.342 89.9146C62.6934 91.0962 63.4174 92.1325 64.406 92.8689C65.3947 93.6052 66.595 94.0021 67.8277 94.0003H92.1706C93.4033 94.0021 94.6036 93.6052 95.5923 92.8689C96.5809 92.1325 97.305 91.0962 97.6563 89.9146L98.5706 86.8574Z" stroke="#C89B73" stroke-width="1.5" stroke-linecap="round" stroke-linejoin="round"/>
<path d="M80 69.7143V64" stroke="#C89B73" stroke-width="1.5" stroke-linecap="round" stroke-linejoin="round"/>
</svg>
