<svg width="30" height="30" viewBox="0 0 30 30" fill="none" xmlns="http://www.w3.org/2000/svg">
<g clip-path="url(#clip0_134_1402)">
<path d="M14.9062 25.9561C6.65625 25.9561 0 19.279 0 11.0031V10.1567H29.8125V11.0031C29.8125 19.279 23.1562 25.9561 14.9062 25.9561ZM1.78125 11.8495C2.25 18.7147 7.96875 24.1693 14.9062 24.1693C21.8438 24.1693 27.5625 18.7147 28.0312 11.8495H1.78125Z" fill="#C89B73"/>
<path d="M21.4688 30.0001H8.34375C7.875 30.0001 7.5 29.6239 7.5 29.1537C7.5 28.5894 7.875 28.2133 8.34375 28.2133H21.4688C21.9375 28.2133 22.3125 28.5894 22.3125 29.0597C22.4062 29.5299 21.9375 30.0001 21.4688 30.0001Z" fill="#C89B73"/>
<path d="M25.7812 11.0032H24C24 6.01888 19.9688 1.88095 14.9062 1.88095C9.84375 1.88095 5.8125 5.92484 5.8125 11.0032H4.125C4.125 4.9844 9 0.0941162 15 0.0941162C20.9062 0.0941162 25.7812 4.9844 25.7812 11.0032Z" fill="#C89B73"/>
<path d="M13.0313 6.30093C12.8438 6.30093 12.6563 6.20689 12.4688 6.11285L11.625 5.45454C11.25 5.07836 11.25 4.5141 11.5313 4.13792C11.9063 3.76175 12.4688 3.76175 12.8438 4.04388L13.5938 4.70219C13.9688 5.07836 14.0625 5.64263 13.6875 6.0188C13.5 6.20689 13.3125 6.30093 13.0313 6.30093Z" fill="#C89B73"/>
<path d="M9.1875 9.31042C9 9.31042 8.71875 9.21638 8.53125 9.02829C8.15625 8.65212 8.15625 8.08785 8.53125 7.80572L9.375 7.05337C9.75 6.6772 10.3125 6.6772 10.5937 7.05337C10.9687 7.42955 10.9687 7.99381 10.5937 8.27594L9.84375 9.02829C9.65625 9.21638 9.46875 9.31042 9.1875 9.31042Z" fill="#C89B73"/>
<path d="M14.9062 9.31042C14.7187 9.31042 14.4375 9.21638 14.25 9.02829C13.875 8.65212 13.875 8.08785 14.25 7.80572L15 7.05337C15.375 6.6772 15.9375 6.6772 16.2187 7.05337C16.5937 7.42955 16.5937 7.99381 16.2187 8.27594L15.4688 9.02829C15.375 9.21638 15.1875 9.31042 14.9062 9.31042Z" fill="#C89B73"/>
<path d="M16.875 5.64267C16.6875 5.64267 16.4062 5.54863 16.2188 5.36054C15.8438 4.98437 15.8438 4.4201 16.2188 4.13797L16.6875 3.66775C17.0625 3.29158 17.625 3.29158 17.9063 3.66775C18.2813 4.04393 18.2813 4.60819 17.9063 4.89032L17.4375 5.36054C17.3438 5.54863 17.1563 5.64267 16.875 5.64267Z" fill="#C89B73"/>
<path d="M17.9062 11.8496C17.7187 11.8496 17.5312 11.7555 17.3437 11.6615C16.9687 11.3794 16.875 10.8151 17.1562 10.4389L24.75 0.282185C25.0312 -0.0939902 25.5937 -0.188034 25.9687 0.0940976C26.3437 0.376229 26.4375 0.940493 26.1562 1.31667L18.5625 11.4734C18.375 11.7555 18.0937 11.8496 17.9062 11.8496Z" fill="#C89B73"/>
<path d="M17.9062 11.8496C17.625 11.8496 17.3437 11.7555 17.1562 11.4734C16.875 11.0972 16.9687 10.533 17.3437 10.2508L28.5937 2.16307C28.9687 1.88094 29.5312 1.97498 29.8125 2.35116C30.0937 2.72733 30 3.29159 29.625 3.57373L18.375 11.6615C18.1875 11.8496 18 11.8496 17.9062 11.8496Z" fill="#C89B73"/>
</g>
<defs>
<clipPath id="clip0_134_1402">
<rect width="30" height="30" fill="white"/>
</clipPath>
</defs>
</svg>
