<svg width="27" height="30" viewBox="0 0 27 30" fill="none" xmlns="http://www.w3.org/2000/svg">
<g clip-path="url(#clip0_134_1439)">
<path d="M24.8136 9.84375H2.18679C1.5213 9.84375 0.855809 9.46875 0.570598 8.90625C0.285387 8.34375 0.285387 7.59375 0.570598 7.03125C3.42271 2.625 8.2713 0 13.5002 0C18.729 0 23.5776 2.625 26.4298 7.03125C26.81 7.59375 26.81 8.25 26.4298 8.90625C26.1445 9.46875 25.479 9.84375 24.8136 9.84375ZM13.5002 1.78125C8.84172 1.78125 4.56356 4.125 2.09172 8.0625C2.09172 8.15625 2.18679 8.15625 2.18679 8.15625H24.8136C24.8136 8.15625 24.9086 8.15625 24.9086 8.0625C22.4368 4.125 18.1586 1.78125 13.5002 1.78125Z" fill="#C89B73"/>
<path d="M13.5001 30C7.986 30 2.94727 27.0937 0.190227 22.3125C-0.0949845 21.75 -0.0949845 21.0937 0.190227 20.5312C0.570509 19.9687 1.14093 19.5938 1.80642 19.5938H25.0987C25.7642 19.5938 26.4297 19.9687 26.7149 20.5312C27.0952 21.0937 27.0952 21.75 26.7149 22.3125C24.0529 27.0937 19.0142 30 13.5001 30ZM1.90149 21.375C1.80642 21.375 1.80642 21.375 1.90149 21.375C4.18319 25.6875 8.65149 28.2187 13.5001 28.2187C18.3487 28.2187 22.817 25.5937 25.1937 21.4687C25.1937 21.375 25.1937 21.375 25.0987 21.375H1.90149Z" fill="#C89B73"/>
<path d="M26.0493 21.375H0.950684V8.0625H26.0493V21.375ZM2.75702 19.5937H24.2429V9.84375H2.75702V19.5937Z" fill="#C89B73"/>
<path d="M25.0987 13.5938H19.1093C18.6339 13.5938 18.2537 13.2188 18.2537 12.75C18.2537 12.2813 18.6339 11.9062 19.1093 11.9062H25.0987C25.5741 11.9062 25.9544 12.2813 25.9544 12.75C26.0494 13.2188 25.6692 13.5938 25.0987 13.5938Z" fill="#C89B73"/>
<path d="M16.162 13.5938H1.90144C1.42609 13.5938 1.04581 13.2188 1.04581 12.75C0.950739 12.1875 1.33102 11.8125 1.90144 11.8125H16.162C16.6374 11.8125 17.0176 12.1875 17.0176 12.6562C17.0176 13.2188 16.6374 13.5938 16.162 13.5938Z" fill="#C89B73"/>
<path d="M25.0987 17.4375H1.90153C1.42618 17.4375 1.0459 17.0625 1.0459 16.5938C1.0459 16.125 1.42618 15.75 1.90153 15.75H25.1938C25.6691 15.75 26.0494 16.125 26.0494 16.5938C26.0494 17.0625 25.6691 17.4375 25.0987 17.4375Z" fill="#C89B73"/>
<path d="M17.7782 14.5312C17.3979 14.5312 16.9225 14.4375 16.6373 14.1562L10.7429 9.74996C10.3627 9.37496 10.2676 8.81246 10.5528 8.43746C10.838 8.06246 11.4084 7.96871 11.7887 8.24996L17.6831 12.6562H17.7782L20.0598 8.53121C20.25 8.06246 20.8204 7.96871 21.2958 8.15621C21.7711 8.43746 21.8662 8.99996 21.676 9.37496L19.3943 13.5C19.1091 13.9687 18.6338 14.3437 18.1584 14.4375C18.0634 14.5312 17.8732 14.5312 17.7782 14.5312Z" fill="#C89B73"/>
</g>
<defs>
<clipPath id="clip0_134_1439">
<rect width="27" height="30" fill="white"/>
</clipPath>
</defs>
</svg>
