<svg width="30" height="30" viewBox="0 0 30 30" fill="none" xmlns="http://www.w3.org/2000/svg">
<g clip-path="url(#clip0_304_480)">
<path d="M14.9536 25.9813C6.68731 25.9813 0 19.2523 0 10.9346V10H30V10.9346C30 19.2523 23.2198 25.9813 14.9536 25.9813ZM1.76471 11.8692C2.2291 18.785 7.98762 24.2991 14.9536 24.2991C21.9195 24.2991 27.678 18.785 28.1424 11.8692H1.76471Z" fill="#C89B73"/>
<path d="M21.5483 30H8.35946C7.89506 30 7.43066 29.6262 7.43066 29.0654C7.43066 28.5981 7.80218 28.1309 8.35946 28.1309H21.5483C22.0127 28.1309 22.4771 28.5047 22.4771 29.0654C22.4771 29.6262 22.0127 30 21.5483 30Z" fill="#C89B73"/>
<path d="M28.4775 0.0319881L18.2979 10.275L19.5457 11.5306L29.7253 1.28759L28.4775 0.0319881Z" fill="#C89B73"/>
</g>
<defs>
<clipPath id="clip0_304_480">
<rect width="30" height="30" fill="white"/>
</clipPath>
</defs>
</svg>
