<svg width="21" height="20" viewBox="0 0 21 20" fill="none" xmlns="http://www.w3.org/2000/svg">
<g clip-path="url(#clip0_134_1766)">
<path d="M10.1927 20C15.8123 20 20.3854 15.5133 20.3854 10C20.3854 4.48668 15.8123 0 10.1927 0C4.57308 0 0 4.48668 0 10C0 15.5133 4.57314 20 10.1927 20ZM10.1927 1.33331C15.0648 1.33331 19.0264 5.21996 19.0264 10C19.0264 14.78 15.0649 18.6667 10.1927 18.6667C5.32056 18.6667 1.359 14.78 1.359 10C1.359 5.21996 5.32061 1.33331 10.1927 1.33331Z" fill="#C89B73"/>
<path d="M13.1643 13.1867C13.2901 13.2866 13.4395 13.3333 13.589 13.3333C13.7895 13.3333 13.9865 13.2467 14.119 13.0833C14.3535 12.7967 14.3059 12.3767 14.0137 12.1467L10.871 9.67999V4.66666C10.871 4.29998 10.5652 4 10.1915 4C9.81773 4 9.51196 4.29998 9.51196 4.66666V10C9.51196 10.2034 9.60711 10.3933 9.76678 10.52L13.1643 13.1867Z" fill="#C89B73"/>
</g>
<defs>
<clipPath id="clip0_134_1766">
<rect width="20.3854" height="20" fill="white"/>
</clipPath>
</defs>
</svg>
