<svg width="50" height="50" viewBox="0 0 50 50" fill="none" xmlns="http://www.w3.org/2000/svg">
<g clip-path="url(#clip0_332_896)">
<path d="M42.7898 49.2163C42.3196 49.2163 42.0061 49.0595 41.6926 48.746L31.191 38.2445L26.9591 41.6927C26.3321 42.163 25.3917 42.163 24.9214 41.536L19.4356 36.0501C18.8086 35.4231 18.8086 34.4827 19.4356 33.8558C20.0625 33.2288 21.003 33.2288 21.6299 33.8558L26.1754 38.4012L30.4073 34.9529C31.0343 34.4827 31.9747 34.4827 32.445 35.1097L42.7898 45.4545L45.1409 43.1034L34.7961 32.7586C34.1691 32.1316 34.1691 31.1912 34.7961 30.5642C35.423 29.9373 36.3635 29.9373 36.9904 30.5642L48.4324 42.0062C49.0594 42.6332 49.0594 43.5736 48.4324 44.2006L43.887 48.746C43.5735 49.0595 43.1033 49.2163 42.7898 49.2163Z" fill="white"/>
<path d="M15.8305 31.8182C15.3603 31.8182 15.0468 31.6614 14.7333 31.348L4.07499 20.6897C-1.25416 15.3605 -1.25416 6.58307 4.07499 1.09718L4.70195 0.470219C5.32891 -0.15674 6.26935 -0.15674 6.89631 0.470219L20.0625 13.6364C20.6894 14.2633 20.6894 15.2038 20.0625 15.8307C19.4355 16.4577 18.4951 16.4577 17.8681 15.8307L5.79913 3.76176C4.07499 5.64263 3.13455 8.30721 3.13455 10.9718C3.13455 13.7931 4.23173 16.6144 6.26935 18.4953L16.9277 29.1536C17.5546 29.7806 17.5546 30.721 16.9277 31.348C16.6142 31.6614 16.144 31.8182 15.8305 31.8182Z" fill="white"/>
<path d="M32.1315 33.6992C28.213 33.6992 24.2945 32.2885 21.4732 29.3105C18.6519 26.4891 17.0845 22.5707 17.0845 18.6522C17.0845 14.5769 18.6519 10.8152 21.4732 7.99385C24.4512 5.01579 29.1534 2.6647 34.0124 1.41078C39.4983 0.000119209 44.2005 0.783818 47.0218 3.60513C49.8431 6.42645 50.6268 11.1286 49.2161 16.7713C48.119 21.6302 45.6111 26.3324 42.6331 29.3105C39.8117 32.2885 35.8933 33.6992 32.1315 33.6992ZM38.8713 3.76187C33.5422 3.76187 26.8023 6.73993 23.5108 10.0315C21.1597 12.3826 19.9058 15.3606 19.9058 18.6522C19.9058 21.9437 21.1597 24.9217 23.5108 27.2728C28.213 31.975 35.8933 31.975 40.5954 27.2728C45.4544 22.4139 49.3729 10.5017 44.8274 5.95623C43.4168 4.38883 41.3791 3.76187 38.8713 3.76187Z" fill="white"/>
<path d="M6.73981 50C6.26959 50 5.95611 49.8433 5.64263 49.5298L1.09717 44.9843C0.470213 44.3574 0.470213 43.4169 1.09717 42.79L19.1223 24.7649C19.7492 24.1379 20.6896 24.1379 21.3166 24.7649C21.9436 25.3919 21.9436 26.3323 21.3166 26.9593L4.38871 43.8872L6.73981 46.2383L23.6677 29.3104C24.2947 28.6834 25.2351 28.6834 25.8621 29.3104C26.489 29.9373 26.489 30.8778 25.8621 31.5047L7.83698 49.5298C7.68024 49.8433 7.21003 50 6.73981 50Z" fill="white"/>
</g>
<defs>
<clipPath id="clip0_332_896">
<rect width="50" height="50" fill="white"/>
</clipPath>
</defs>
</svg>
