<svg width="21" height="20" viewBox="0 0 21 20" fill="none" xmlns="http://www.w3.org/2000/svg">
<path d="M12.9274 10.0562L9.31762 13.5977L7.45782 11.7731C7.20897 11.5289 6.80584 11.5289 6.557 11.7731C6.30815 12.0172 6.30815 12.4127 6.557 12.6569L8.86721 14.9234C8.99164 15.0455 9.15463 15.1065 9.31762 15.1065C9.48062 15.1065 9.64361 15.0455 9.76803 14.9234L13.8283 10.9399C14.0771 10.6958 14.0771 10.3003 13.8283 10.0562C13.5794 9.81201 13.1763 9.81201 12.9274 10.0562Z" fill="#C89B73"/>
<path d="M15.9262 2.47498H14.9706V1.875C14.9706 1.52985 14.6854 1.25 14.3336 1.25C13.9818 1.25 13.6965 1.52985 13.6965 1.875V2.47498H6.68905V1.875C6.68905 1.52985 6.40381 1.25 6.052 1.25C5.7002 1.25 5.41496 1.52985 5.41496 1.875V2.47498H4.45939C2.70316 2.47498 1.27417 3.87695 1.27417 5.59998V15.625C1.27417 17.348 2.70316 18.75 4.45939 18.75H15.9262C17.6824 18.75 19.1114 17.348 19.1114 15.625V5.59998C19.1114 3.87695 17.6824 2.47498 15.9262 2.47498ZM2.54826 5.59998C2.54826 4.56604 3.40553 3.72498 4.45939 3.72498H5.41496V4.32465C5.41496 4.6698 5.7002 4.94965 6.052 4.94965C6.40381 4.94965 6.68905 4.6698 6.68905 4.32465V3.72498H13.6965V4.32465C13.6965 4.6698 13.9818 4.94965 14.3336 4.94965C14.6854 4.94965 14.9706 4.6698 14.9706 4.32465V3.72498H15.9262C16.98 3.72498 17.8373 4.56604 17.8373 5.59998V6.23108H2.54826V5.59998ZM15.9262 17.5H4.45939C3.40553 17.5 2.54826 16.6589 2.54826 15.625V7.48108H17.8373V15.625C17.8373 16.6589 16.98 17.5 15.9262 17.5Z" fill="#C89B73"/>
</svg>
