<svg width="40" height="40" viewBox="0 0 40 40" fill="none" xmlns="http://www.w3.org/2000/svg">
<g clip-path="url(#clip0_134_1492)">
<path d="M19.875 34.6078C8.875 34.6078 0 25.705 0 14.6705V13.542H39.75V14.6705C39.75 25.705 30.875 34.6078 19.875 34.6078ZM2.375 15.799C3 24.9527 10.625 32.2254 19.875 32.2254C29.125 32.2254 36.75 24.9527 37.375 15.799H2.375Z" fill="#C89B73"/>
<path d="M28.625 39.9996H11.125C10.5 39.9996 10 39.4981 10 38.8711C10 38.1188 10.5 37.6172 11.125 37.6172H28.625C29.25 37.6172 29.75 38.1188 29.75 38.7457C29.875 39.3727 29.25 39.9996 28.625 39.9996Z" fill="#C89B73"/>
<path d="M34.375 14.6705H32C32 8.02468 26.625 2.50744 19.875 2.50744C13.125 2.50744 7.75 7.89929 7.75 14.6705H5.5C5.5 6.64537 12 0.125 20 0.125C27.875 0.125 34.375 6.64537 34.375 14.6705Z" fill="#C89B73"/>
<path d="M17.375 8.40157C17.125 8.40157 16.875 8.27618 16.625 8.15079L15.5 7.27304C15 6.77148 15 6.01913 15.375 5.51756C15.875 5.01599 16.625 5.01599 17.125 5.39217L18.125 6.26991C18.625 6.77148 18.75 7.52383 18.25 8.02539C18 8.27618 17.75 8.40157 17.375 8.40157Z" fill="#C89B73"/>
<path d="M12.25 12.4129C12 12.4129 11.625 12.2875 11.375 12.0367C10.875 11.5352 10.875 10.7828 11.375 10.4067L12.5 9.40352C13 8.90195 13.75 8.90195 14.125 9.40352C14.625 9.90509 14.625 10.6574 14.125 11.0336L13.125 12.0367C12.875 12.2875 12.625 12.4129 12.25 12.4129Z" fill="#C89B73"/>
<path d="M19.875 12.4129C19.625 12.4129 19.25 12.2875 19 12.0367C18.5 11.5352 18.5 10.7828 19 10.4067L20 9.40352C20.5 8.90195 21.25 8.90195 21.625 9.40352C22.125 9.90509 22.125 10.6574 21.625 11.0336L20.625 12.0367C20.5 12.2875 20.25 12.4129 19.875 12.4129Z" fill="#C89B73"/>
<path d="M22.5 7.52405C22.25 7.52405 21.875 7.39866 21.625 7.14788C21.125 6.64631 21.125 5.89396 21.625 5.51778L22.25 4.89082C22.75 4.38926 23.5 4.38926 23.875 4.89082C24.375 5.39239 24.375 6.14474 23.875 6.52092L23.25 7.14788C23.125 7.39866 22.875 7.52405 22.5 7.52405Z" fill="#C89B73"/>
<path d="M23.875 15.799C23.625 15.799 23.375 15.6736 23.125 15.5482C22.625 15.172 22.5 14.4196 22.875 13.9181L33 0.375759C33.375 -0.125809 34.125 -0.2512 34.625 0.124975C35.125 0.501151 35.25 1.2535 34.875 1.75507L24.75 15.2974C24.5 15.6736 24.125 15.799 23.875 15.799Z" fill="#C89B73"/>
<path d="M23.875 15.7991C23.5 15.7991 23.125 15.6737 22.875 15.2976C22.5 14.796 22.625 14.0436 23.125 13.6675L38.125 2.88376C38.625 2.50759 39.375 2.63298 39.75 3.13455C40.125 3.63612 40 4.38847 39.5 4.76464L24.5 15.5483C24.25 15.7991 24 15.7991 23.875 15.7991Z" fill="#C89B73"/>
</g>
<defs>
<clipPath id="clip0_134_1492">
<rect width="40" height="40" fill="white"/>
</clipPath>
</defs>
</svg>
