<svg width="30" height="30" viewBox="0 0 30 30" fill="none" xmlns="http://www.w3.org/2000/svg">
<g clip-path="url(#clip0_134_1808)">
<path d="M14.9062 25.9561C6.65625 25.9561 0 19.279 0 11.0031V10.1567H29.8125V11.0031C29.8125 19.279 23.1562 25.9561 14.9062 25.9561ZM1.78125 11.8495C2.25 18.7147 7.96875 24.1693 14.9062 24.1693C21.8438 24.1693 27.5625 18.7147 28.0312 11.8495H1.78125Z" fill="#C89B73"/>
<path d="M21.4688 30H8.34375C7.875 30 7.5 29.6238 7.5 29.1536C7.5 28.5893 7.875 28.2131 8.34375 28.2131H21.4688C21.9375 28.2131 22.3125 28.5893 22.3125 29.0595C22.4062 29.5297 21.9375 30 21.4688 30Z" fill="#C89B73"/>
<path d="M25.7812 11.0031H24C24 6.01882 19.9688 1.88089 14.9062 1.88089C9.84375 1.88089 5.8125 5.92478 5.8125 11.0031H4.125C4.125 4.98434 9 0.0940552 15 0.0940552C20.9062 0.0940552 25.7812 4.98434 25.7812 11.0031Z" fill="#C89B73"/>
<path d="M13.0313 6.30093C12.8438 6.30093 12.6563 6.20689 12.4688 6.11285L11.625 5.45454C11.25 5.07836 11.25 4.5141 11.5313 4.13792C11.9063 3.76175 12.4688 3.76175 12.8438 4.04388L13.5938 4.70219C13.9688 5.07836 14.0625 5.64263 13.6875 6.0188C13.5 6.20689 13.3125 6.30093 13.0313 6.30093Z" fill="#C89B73"/>
<path d="M9.1875 9.31036C9 9.31036 8.71875 9.21632 8.53125 9.02823C8.15625 8.65206 8.15625 8.08779 8.53125 7.80566L9.375 7.05331C9.75 6.67714 10.3125 6.67714 10.5937 7.05331C10.9687 7.42949 10.9687 7.99375 10.5937 8.27588L9.84375 9.02823C9.65625 9.21632 9.46875 9.31036 9.1875 9.31036Z" fill="#C89B73"/>
<path d="M14.9062 9.31036C14.7187 9.31036 14.4375 9.21632 14.25 9.02823C13.875 8.65206 13.875 8.08779 14.25 7.80566L15 7.05331C15.375 6.67714 15.9375 6.67714 16.2187 7.05331C16.5937 7.42949 16.5937 7.99375 16.2187 8.27588L15.4688 9.02823C15.375 9.21632 15.1875 9.31036 14.9062 9.31036Z" fill="#C89B73"/>
<path d="M16.875 5.64261C16.6875 5.64261 16.4062 5.54857 16.2188 5.36048C15.8438 4.9843 15.8438 4.42004 16.2188 4.13791L16.6875 3.66769C17.0625 3.29152 17.625 3.29152 17.9063 3.66769C18.2813 4.04387 18.2813 4.60813 17.9063 4.89026L17.4375 5.36048C17.3438 5.54857 17.1563 5.64261 16.875 5.64261Z" fill="#C89B73"/>
<path d="M17.9062 11.8495C17.7187 11.8495 17.5312 11.7555 17.3437 11.6614C16.9687 11.3793 16.875 10.815 17.1562 10.4389L24.75 0.282124C25.0312 -0.0940512 25.5937 -0.188095 25.9687 0.0940365C26.3437 0.376168 26.4375 0.940431 26.1562 1.31661L18.5625 11.4733C18.375 11.7555 18.0937 11.8495 17.9062 11.8495Z" fill="#C89B73"/>
<path d="M17.9062 11.8495C17.625 11.8495 17.3437 11.7555 17.1562 11.4734C16.875 11.0972 16.9687 10.5329 17.3437 10.2508L28.5937 2.16301C28.9687 1.88087 29.5312 1.97492 29.8125 2.35109C30.0937 2.72727 30 3.29153 29.625 3.57366L18.375 11.6614C18.1875 11.8495 18 11.8495 17.9062 11.8495Z" fill="#C89B73"/>
</g>
<defs>
<clipPath id="clip0_134_1808">
<rect width="30" height="30" fill="white"/>
</clipPath>
</defs>
</svg>
