<svg width="40" height="40" viewBox="0 0 40 40" fill="none" xmlns="http://www.w3.org/2000/svg">
<g clip-path="url(#clip0_1012_63)">
<path d="M34.2314 39.373C33.8553 39.373 33.6045 39.2476 33.3537 38.9968L24.9524 30.5956L21.5669 33.3542C21.0653 33.7304 20.3129 33.7304 19.9368 33.2288L15.5481 28.8401C15.0465 28.3385 15.0465 27.5862 15.5481 27.0846C16.0496 26.583 16.802 26.583 17.3035 27.0846L20.9399 30.721L24.3255 27.9623C24.827 27.5862 25.5794 27.5862 25.9556 28.0877L34.2314 36.3636L36.1123 34.4827L27.8365 26.2069C27.3349 25.7053 27.3349 24.9529 27.8365 24.4514C28.338 23.9498 29.0904 23.9498 29.5919 24.4514L38.7455 33.605C39.2471 34.1065 39.2471 34.8589 38.7455 35.3605L35.1092 38.9968C34.8584 39.2476 34.4822 39.373 34.2314 39.373Z" fill="#C89B73"/>
<path d="M12.6644 25.4545C12.2882 25.4545 12.0374 25.3292 11.7866 25.0784L3.25999 16.5517C-1.00333 12.2884 -1.00333 5.26646 3.25999 0.877743L3.76156 0.376176C4.26313 -0.125392 5.01548 -0.125392 5.51705 0.376176L16.05 10.9091C16.5515 11.4107 16.5515 12.163 16.05 12.6646C15.5484 13.1661 14.796 13.1661 14.2945 12.6646L4.6393 3.0094C3.25999 4.51411 2.50764 6.64577 2.50764 8.77743C2.50764 11.0345 3.38538 13.2915 5.01548 14.7962L13.5421 23.3229C14.0437 23.8245 14.0437 24.5768 13.5421 25.0784C13.2913 25.3292 12.9152 25.4545 12.6644 25.4545Z" fill="#C89B73"/>
<path d="M25.7056 26.9591C22.5708 26.9591 19.436 25.8306 17.1789 23.4482C14.9219 21.1911 13.668 18.0563 13.668 14.9215C13.668 11.6613 14.9219 8.65194 17.1789 6.39488C19.5614 4.01244 23.3231 2.13156 27.2103 1.12843C31.599 -9.98823e-05 35.3608 0.626859 37.6178 2.88391C39.8749 5.14097 40.5018 8.90272 39.3733 13.4168C38.4956 17.304 36.4893 21.0657 34.1068 23.4482C31.8498 25.8306 28.715 26.9591 25.7056 26.9591ZM31.0974 3.0093C26.8341 3.0093 21.4423 5.39175 18.809 8.02498C16.9282 9.90586 15.925 12.2883 15.925 14.9215C15.925 17.5548 16.9282 19.9372 18.809 21.8181C22.5708 25.5798 28.715 25.5798 32.4767 21.8181C36.3639 17.9309 39.4987 8.40115 35.8623 4.76479C34.7338 3.51087 33.1037 3.0093 31.0974 3.0093Z" fill="#C89B73"/>
<path d="M5.39224 39.9998C5.01606 39.9998 4.76528 39.8744 4.51449 39.6236L0.878129 35.9873C0.376561 35.4857 0.376561 34.7334 0.878129 34.2318L15.2982 19.8117C15.7998 19.3102 16.5521 19.3102 17.0537 19.8117C17.5552 20.3133 17.5552 21.0656 17.0537 21.5672L3.51136 35.1095L5.39224 36.9904L18.9346 23.4481C19.4361 22.9465 20.1885 22.9465 20.69 23.4481C21.1916 23.9497 21.1916 24.702 20.69 25.2036L6.26998 39.6236C6.14459 39.8744 5.76841 39.9998 5.39224 39.9998Z" fill="#C89B73"/>
</g>
<defs>
<clipPath id="clip0_1012_63">
<rect width="40" height="40" fill="white"/>
</clipPath>
</defs>
</svg>
