<svg width="30" height="30" viewBox="0 0 30 30" fill="none" xmlns="http://www.w3.org/2000/svg">
<g clip-path="url(#clip0_999_49)">
<path d="M26.4375 21.3204C25.9688 21.3204 25.5938 20.9431 25.5938 20.4714C25.5938 14.6223 20.8125 9.81101 15 9.81101C9.18751 9.81101 4.40626 14.6223 4.40626 20.4714C4.40626 20.9431 4.03126 21.3204 3.56251 21.3204C3.09376 21.3204 2.71876 20.9431 2.71876 20.4714C2.62501 13.5846 8.15626 8.01855 15 8.01855C21.8438 8.01855 27.375 13.5846 27.375 20.4714C27.375 20.9431 26.9063 21.3204 26.4375 21.3204Z" fill="#C89B73"/>
<path d="M18 10.1887C17.5313 10.1887 17.1562 9.81132 17.1562 9.33962V6.79245H12.9375V9.33962C12.9375 9.81132 12.5625 10.1887 12.0937 10.1887C11.625 10.1887 11.25 9.81132 11.25 9.33962V6.79245C11.25 5.84906 12 5 13.0312 5H17.25C18.1875 5 19.0312 5.75472 19.0312 6.79245V9.33962C18.8437 9.81132 18.4688 10.1887 18 10.1887Z" fill="#C89B73"/>
<path d="M30 25H0V19.5283H30V25ZM1.78125 23.3019H28.2188V21.4151H1.78125V23.3019Z" fill="#C89B73"/>
</g>
<defs>
<clipPath id="clip0_999_49">
<rect width="30" height="20" fill="white" transform="translate(0 5)"/>
</clipPath>
</defs>
</svg>
