<svg width="24" height="24" viewBox="0 0 24 24" fill="none" xmlns="http://www.w3.org/2000/svg">
<g clip-path="url(#clip0_300_120)">
<path d="M18.375 24H6.3C5.925 24 5.625 23.7 5.625 23.325V13.875C2.55 13.875 0 11.4 0 8.25C0 5.25 2.475 2.7 5.625 2.7C6.15 2.7 6.675 2.775 7.125 2.925C8.025 1.125 9.9 0 12 0C14.1 0 15.975 1.125 16.875 2.925C17.4 2.775 17.85 2.7 18.375 2.7C21.45 2.7 23.925 5.175 23.925 8.25C23.925 11.1 21.825 13.425 19.05 13.8V23.25C19.125 23.7 18.825 24 18.375 24ZM6.975 22.575H17.7V13.2C17.7 12.825 18 12.525 18.375 12.525C20.7 12.525 22.575 10.65 22.575 8.325C22.575 6 20.7 4.125 18.375 4.125C17.85 4.125 17.25 4.2 16.8 4.425C16.65 4.5 16.425 4.5 16.275 4.425C16.125 4.35 15.975 4.2 15.9 4.05C15.3 2.475 13.725 1.425 12 1.425C10.275 1.425 8.775 2.475 8.1 4.05C8.025 4.2 7.875 4.35 7.725 4.425C7.575 4.5 7.35 4.5 7.2 4.425C6.675 4.2 6.15 4.125 5.625 4.125C3.3 4.125 1.425 6 1.425 8.325C1.425 10.65 3.3 12.525 5.625 12.525C5.85 12.525 6.075 12.525 6.225 12.45C6.45 12.45 6.675 12.45 6.825 12.6C6.975 12.75 7.05 12.9 7.05 13.125V22.575H6.975Z" fill="white"/>
<path d="M18.375 20.85H6.3C5.925 20.85 5.625 20.55 5.625 20.175C5.625 19.8 5.925 19.5 6.3 19.5H18.45C18.825 19.5 19.125 19.8 19.125 20.175C19.125 20.55 18.825 20.85 18.375 20.85Z" fill="white"/>
</g>
<defs>
<clipPath id="clip0_300_120">
<rect width="24" height="24" fill="white"/>
</clipPath>
</defs>
</svg>
