<svg width="30" height="30" viewBox="0 0 30 30" fill="none" xmlns="http://www.w3.org/2000/svg">
<g clip-path="url(#clip0_134_1836)">
<path d="M25.6741 29.5298C25.3919 29.5298 25.2038 29.4358 25.0158 29.2477L18.7148 22.9467L16.1756 25.0157C15.7995 25.2978 15.2352 25.2978 14.9531 24.9217L11.6615 21.6301C11.2854 21.2539 11.2854 20.6897 11.6615 20.3135C12.0377 19.9373 12.602 19.9373 12.9781 20.3135L15.7054 23.0408L18.2446 20.9718C18.6208 20.6897 19.185 20.6897 19.4672 21.0659L25.6741 27.2728L27.0847 25.8621L20.8778 19.6552C20.5017 19.279 20.5017 18.7148 20.8778 18.3386C21.254 17.9624 21.8183 17.9624 22.1944 18.3386L29.0596 25.2038C29.4358 25.58 29.4358 26.1442 29.0596 26.5204L26.3324 29.2477C26.1443 29.4358 25.8622 29.5298 25.6741 29.5298Z" fill="#C89B73"/>
<path d="M9.49829 19.0909C9.21616 19.0909 9.02807 18.9969 8.83998 18.8088L2.44499 12.4138C-0.752498 9.2163 -0.752498 3.94984 2.44499 0.658307L2.82117 0.282132C3.19735 -0.0940439 3.76161 -0.0940439 4.13778 0.282132L12.0375 8.18182C12.4136 8.55799 12.4136 9.12226 12.0375 9.49843C11.6613 9.87461 11.097 9.87461 10.7209 9.49843L3.47948 2.25705C2.44499 3.38558 1.88073 4.98433 1.88073 6.58307C1.88073 8.27586 2.53904 9.96865 3.76161 11.0972L10.1566 17.4922C10.5328 17.8683 10.5328 18.4326 10.1566 18.8088C9.96851 18.9969 9.68637 19.0909 9.49829 19.0909Z" fill="#C89B73"/>
<path d="M19.2789 20.2194C16.9278 20.2194 14.5768 19.373 12.884 17.5862C11.1912 15.8934 10.2507 13.5423 10.2507 11.1912C10.2507 8.74607 11.1912 6.48901 12.884 4.79622C14.6708 3.00939 17.4921 1.59873 20.4075 0.846381C23.699 -1.39177e-05 26.5203 0.470206 28.2131 2.163C29.9059 3.85579 30.3761 6.6771 29.5297 10.0627C28.8714 12.978 27.3667 15.7994 25.5799 17.5862C23.8871 19.373 21.536 20.2194 19.2789 20.2194ZM23.3228 2.25704C20.1253 2.25704 16.0815 4.04387 14.1065 6.0188C12.6959 7.42945 11.9435 9.21629 11.9435 11.1912C11.9435 13.1661 12.6959 14.953 14.1065 16.3636C16.9278 19.1849 21.536 19.1849 24.3573 16.3636C27.2727 13.4483 29.6238 6.30093 26.8965 3.57365C26.0501 2.63321 24.8275 2.25704 23.3228 2.25704Z" fill="#C89B73"/>
<path d="M4.04393 30C3.7618 30 3.57371 29.9059 3.38562 29.7178L0.658352 26.9906C0.282177 26.6144 0.282177 26.0501 0.658352 25.674L11.4734 14.8589C11.8496 14.4827 12.4138 14.4827 12.79 14.8589C13.1662 15.2351 13.1662 15.7994 12.79 16.1755L2.63327 26.3323L4.04393 27.7429L14.2007 17.5862C14.5768 17.21 15.1411 17.21 15.5173 17.5862C15.8935 17.9624 15.8935 18.5266 15.5173 18.9028L4.70224 29.7178C4.6082 29.9059 4.32606 30 4.04393 30Z" fill="#C89B73"/>
</g>
<defs>
<clipPath id="clip0_134_1836">
<rect width="30" height="30" fill="white"/>
</clipPath>
</defs>
</svg>
