<svg width="30" height="30" viewBox="0 0 30 30" fill="none" xmlns="http://www.w3.org/2000/svg">
<g clip-path="url(#clip0_134_1829)">
<path d="M22.9688 30H7.875C7.40625 30 7.03125 29.625 7.03125 29.1562V17.3438C3.1875 17.3438 0 14.25 0 10.3125C0 6.5625 3.09375 3.375 7.03125 3.375C7.6875 3.375 8.34375 3.46875 8.90625 3.65625C10.0312 1.40625 12.375 0 15 0C17.625 0 19.9688 1.40625 21.0938 3.65625C21.75 3.46875 22.3125 3.375 22.9688 3.375C26.8125 3.375 29.9062 6.46875 29.9062 10.3125C29.9062 13.875 27.2812 16.7812 23.8125 17.25V29.0625C23.9062 29.625 23.5312 30 22.9688 30ZM8.71875 28.2188H22.125V16.5C22.125 16.0312 22.5 15.6563 22.9688 15.6563C25.875 15.6563 28.2188 13.3125 28.2188 10.4062C28.2188 7.5 25.875 5.15625 22.9688 5.15625C22.3125 5.15625 21.5625 5.25 21 5.53125C20.8125 5.625 20.5312 5.625 20.3438 5.53125C20.1562 5.4375 19.9688 5.25 19.875 5.0625C19.125 3.09375 17.1562 1.78125 15 1.78125C12.8438 1.78125 10.9688 3.09375 10.125 5.0625C10.0312 5.25 9.84375 5.4375 9.65625 5.53125C9.46875 5.625 9.1875 5.625 9 5.53125C8.34375 5.25 7.6875 5.15625 7.03125 5.15625C4.125 5.15625 1.78125 7.5 1.78125 10.4062C1.78125 13.3125 4.125 15.6563 7.03125 15.6563C7.3125 15.6563 7.59375 15.6562 7.78125 15.5625C8.0625 15.5625 8.34375 15.5625 8.53125 15.75C8.71875 15.9375 8.8125 16.125 8.8125 16.4062V28.2188H8.71875Z" fill="#C89B73"/>
<path d="M22.9688 26.0625H7.875C7.40625 26.0625 7.03125 25.6875 7.03125 25.2187C7.03125 24.75 7.40625 24.375 7.875 24.375H23.0625C23.5312 24.375 23.9062 24.75 23.9062 25.2187C23.9062 25.6875 23.5312 26.0625 22.9688 26.0625Z" fill="#C89B73"/>
</g>
<defs>
<clipPath id="clip0_134_1829">
<rect width="30" height="30" fill="white"/>
</clipPath>
</defs>
</svg>
