<svg width="30" height="30" viewBox="0 0 30 30" fill="none" xmlns="http://www.w3.org/2000/svg">
<g clip-path="url(#clip0_1026_96)">
<path d="M10.3077 17.7273C6.26923 17.7273 3 14.4156 3 10.3247C3 6.23377 6.17308 0 10.3077 0C14.4423 0 17.6154 6.23377 17.6154 10.3247C17.7115 14.4156 14.3462 17.7273 10.3077 17.7273ZM10.3077 1.75325C7.32692 1.75325 4.73077 7.11039 4.73077 10.3247C4.73077 13.4416 7.23077 15.974 10.3077 15.974C13.3846 15.974 15.8846 13.4416 15.8846 10.3247C15.9808 7.11039 13.2885 1.75325 10.3077 1.75325Z" fill="#C89B73"/>
<path d="M11.9428 29.9996H8.76968C8.28891 29.9996 7.9043 29.61 7.9043 29.123V16.8503C7.9043 16.3632 8.28891 15.9736 8.76968 15.9736C9.25045 15.9736 9.63507 16.3632 9.63507 16.8503V28.2464H10.9812V16.8503C10.9812 16.3632 11.3658 15.9736 11.8466 15.9736C12.3274 15.9736 12.712 16.3632 12.712 16.8503V29.0256C12.8081 29.61 12.4235 29.9996 11.9428 29.9996Z" fill="#C89B73"/>
<path d="M27.1344 30H24.0575C23.5767 30 23.1921 29.6104 23.1921 29.1234V22.1104L20.6921 21.8182C20.2113 21.8182 19.9229 21.4286 19.9229 20.9416V6.81818C19.9229 3.11688 22.9036 0 26.6536 0H27.1344C27.6152 0 27.9998 0.38961 27.9998 0.876623V29.1234C27.9998 29.6104 27.6152 30 27.1344 30ZM24.8267 28.2468H26.1729V1.75325C23.6729 1.94805 21.6536 4.18831 21.6536 6.81818V20.1623L24.1536 20.4545C24.6344 20.4545 24.9229 20.8442 24.9229 21.3312V28.2468H24.8267Z" fill="#C89B73"/>
</g>
<defs>
<clipPath id="clip0_1026_96">
<rect width="25" height="30" fill="white" transform="translate(3)"/>
</clipPath>
</defs>
</svg>
