<svg width="40" height="40" viewBox="0 0 40 40" fill="none" xmlns="http://www.w3.org/2000/svg">
<g clip-path="url(#clip0_1012_46)">
<path d="M36.7597 13.125H3.23861C2.2527 13.125 1.26678 12.625 0.844245 11.875C0.42171 11.125 0.42171 10.125 0.844245 9.375C5.0696 3.5 12.2527 0 19.9992 0C27.7457 0 34.9288 3.5 39.1541 9.375C39.7175 10.125 39.7175 11 39.1541 11.875C38.7316 12.625 37.7457 13.125 36.7597 13.125ZM19.9992 2.375C13.0978 2.375 6.75974 5.5 3.09777 10.75C3.09777 10.875 3.23861 10.875 3.23861 10.875H36.7597C36.7597 10.875 36.9006 10.875 36.9006 10.75C33.2386 5.5 26.9006 2.375 19.9992 2.375Z" fill="#C89B73"/>
<path d="M20.0001 40C11.831 40 4.36625 36.125 0.281745 29.75C-0.14079 29 -0.14079 28.125 0.281745 27.375C0.845125 26.625 1.6902 26.125 2.67611 26.125H37.1832C38.1691 26.125 39.155 26.625 39.5775 27.375C40.1409 28.125 40.1409 29 39.5775 29.75C35.6339 36.125 28.1691 40 20.0001 40ZM2.81696 28.5C2.67611 28.5 2.67611 28.5 2.81696 28.5C6.19724 34.25 12.817 37.625 20.0001 37.625C27.1832 37.625 33.8029 34.125 37.324 28.625C37.324 28.5 37.324 28.5 37.1832 28.5H2.81696Z" fill="#C89B73"/>
<path d="M38.5913 28.5H1.4082V10.75H38.5913V28.5ZM4.08426 26.125H35.9152V13.125H4.08426V26.125Z" fill="#C89B73"/>
<path d="M37.1838 18.125H28.3106C27.6063 18.125 27.043 17.625 27.043 17C27.043 16.375 27.6063 15.875 28.3106 15.875H37.1838C37.888 15.875 38.4514 16.375 38.4514 17C38.5923 17.625 38.0289 18.125 37.1838 18.125Z" fill="#C89B73"/>
<path d="M23.9433 18.125H2.81652C2.11229 18.125 1.54891 17.625 1.54891 17C1.40807 16.25 1.97145 15.75 2.81652 15.75H23.9433C24.6475 15.75 25.2109 16.25 25.2109 16.875C25.2109 17.625 24.6475 18.125 23.9433 18.125Z" fill="#C89B73"/>
<path d="M37.1826 23.25H2.81643C2.11221 23.25 1.54883 22.75 1.54883 22.125C1.54883 21.5 2.11221 21 2.81643 21H37.3235C38.0277 21 38.5911 21.5 38.5911 22.125C38.5911 22.75 38.0277 23.25 37.1826 23.25Z" fill="#C89B73"/>
<path d="M26.3386 19.3746C25.7752 19.3746 25.071 19.2496 24.6484 18.8746L15.916 12.9996C15.3527 12.4996 15.2118 11.7496 15.6344 11.2496C16.0569 10.7496 16.902 10.6246 17.4653 10.9996L26.1977 16.8746H26.3386L29.7189 11.3746C30.0006 10.7496 30.8456 10.6246 31.5498 10.8746C32.2541 11.2496 32.3949 11.9996 32.1132 12.4996L28.7329 17.9996C28.3104 18.6246 27.6062 19.1246 26.902 19.2496C26.7611 19.3746 26.4794 19.3746 26.3386 19.3746Z" fill="#C89B73"/>
</g>
<defs>
<clipPath id="clip0_1012_46">
<rect width="40" height="40" fill="white"/>
</clipPath>
</defs>
</svg>
