<svg width="50" height="50" viewBox="0 0 50 50" fill="none" xmlns="http://www.w3.org/2000/svg">
<g clip-path="url(#clip0_332_802)">
<path d="M24.8438 43.2603C11.0937 43.2603 0 32.1317 0 18.3386V16.928H49.6875V18.3386C49.6875 32.1317 38.5938 43.2603 24.8438 43.2603ZM2.96875 19.7493C3.75 31.1913 13.2812 40.2822 24.8438 40.2822C36.4062 40.2822 45.9375 31.1913 46.7188 19.7493H2.96875Z" fill="white"/>
<path d="M35.7813 50H13.9062C13.125 50 12.5 49.3731 12.5 48.5894C12.5 47.6489 13.125 47.022 13.9062 47.022H35.7813C36.5625 47.022 37.1875 47.6489 37.1875 48.4326C37.3438 49.2163 36.5625 50 35.7813 50Z" fill="white"/>
<path d="M42.9688 18.3386H40C40 10.0313 33.2812 3.13479 24.8438 3.13479C16.4062 3.13479 9.6875 9.87461 9.6875 18.3386H6.875C6.875 8.30721 15 0.156738 25 0.156738C34.8438 0.156738 42.9688 8.30721 42.9688 18.3386Z" fill="white"/>
<path d="M21.7189 10.5015C21.4064 10.5015 21.0939 10.3447 20.7814 10.188L19.3751 9.09082C18.7501 8.46386 18.7501 7.52342 19.2189 6.89646C19.8439 6.2695 20.7814 6.2695 21.4064 6.73972L22.6564 7.8369C23.2814 8.46386 23.4376 9.4043 22.8126 10.0313C22.5001 10.3447 22.1876 10.5015 21.7189 10.5015Z" fill="white"/>
<path d="M15.3125 15.5171C15 15.5171 14.5312 15.3604 14.2188 15.0469C13.5938 14.42 13.5938 13.4795 14.2188 13.0093L15.625 11.7554C16.25 11.1284 17.1875 11.1284 17.6562 11.7554C18.2812 12.3823 18.2812 13.3228 17.6562 13.793L16.4062 15.0469C16.0937 15.3604 15.7812 15.5171 15.3125 15.5171Z" fill="white"/>
<path d="M24.8437 15.5171C24.5312 15.5171 24.0625 15.3604 23.75 15.0469C23.125 14.42 23.125 13.4795 23.75 13.0093L25 11.7554C25.625 11.1284 26.5625 11.1284 27.0312 11.7554C27.6562 12.3823 27.6562 13.3228 27.0312 13.793L25.7813 15.0469C25.625 15.3604 25.3125 15.5171 24.8437 15.5171Z" fill="white"/>
<path d="M28.125 9.40433C27.8125 9.40433 27.3437 9.24759 27.0312 8.93411C26.4063 8.30715 26.4063 7.36672 27.0312 6.8965L27.8125 6.1128C28.4375 5.48584 29.375 5.48584 29.8438 6.1128C30.4688 6.73976 30.4688 7.6802 29.8438 8.15041L29.0625 8.93411C28.9063 9.24759 28.5938 9.40433 28.125 9.40433Z" fill="white"/>
<path d="M29.8438 19.7492C29.5313 19.7492 29.2188 19.5924 28.9063 19.4357C28.2813 18.9655 28.1251 18.025 28.5938 17.3981L41.2501 0.470187C41.7188 -0.156772 42.6563 -0.313512 43.2813 0.156707C43.9063 0.626927 44.0626 1.56737 43.5938 2.19432L30.9376 19.1222C30.6251 19.5924 30.1563 19.7492 29.8438 19.7492Z" fill="white"/>
<path d="M29.8438 19.7492C29.3751 19.7492 28.9063 19.5924 28.5938 19.1222C28.1251 18.4952 28.2813 17.5548 28.9063 17.0846L47.6563 3.60495C48.2813 3.13473 49.2188 3.29147 49.6876 3.91843C50.1563 4.54539 50.0001 5.48583 49.3751 5.95605L30.6251 19.4357C30.3126 19.7492 30.0001 19.7492 29.8438 19.7492Z" fill="white"/>
</g>
<defs>
<clipPath id="clip0_332_802">
<rect width="50" height="50" fill="white"/>
</clipPath>
</defs>
</svg>
