<svg width="20" height="20" viewBox="0 0 20 20" fill="none" xmlns="http://www.w3.org/2000/svg">
<g clip-path="url(#clip0_161_151)">
<path d="M10 0.929688C10.2259 0.929688 10.4286 1.06325 10.5186 1.27246L12.8008 6.61328L12.918 6.88867L13.2148 6.91504L18.9883 7.43945C19.2119 7.45969 19.4017 7.61115 19.4717 7.82617C19.5417 8.04243 19.4771 8.27708 19.3076 8.42578L14.9434 12.252L14.7197 12.4482L14.7861 12.7393L16.0723 18.4062C16.1162 18.6009 16.056 18.7996 15.918 18.9346L15.8535 18.9883C15.6706 19.1208 15.428 19.1312 15.2344 19.0156L10.2568 16.0391L10 15.8857L9.74316 16.0391L4.76465 19.0156C4.67534 19.0691 4.5761 19.0957 4.47656 19.0957C4.3605 19.0957 4.24563 19.0605 4.14746 18.9893L4.14648 18.9883L4.08203 18.9346C3.9636 18.8188 3.90241 18.656 3.91504 18.4893L3.92773 18.4062L5.21387 12.7393L5.28027 12.4482L5.05664 12.252L0.692383 8.42578C0.522865 8.27711 0.457331 8.04051 0.527344 7.8252C0.598423 7.61057 0.789284 7.46007 1.0127 7.43945L1.01172 7.43848L6.78613 6.91504L7.08301 6.88867L7.2002 6.61328L9.48242 1.27148C9.57123 1.06337 9.77372 0.929698 10 0.929688Z" stroke="#C89B73"/>
</g>
<defs>
<clipPath id="clip0_161_151">
<rect width="20" height="20" fill="white"/>
</clipPath>
</defs>
</svg>
