<svg width="50" height="50" viewBox="0 0 50 50" fill="none" xmlns="http://www.w3.org/2000/svg">
<g clip-path="url(#clip0_332_889)">
<path d="M38.2812 50H13.125C12.3437 50 11.7188 49.375 11.7188 48.5938V28.9062C5.3125 28.9062 0 23.75 0 17.1875C0 10.9375 5.15625 5.625 11.7188 5.625C12.8125 5.625 13.9062 5.78125 14.8438 6.09375C16.7188 2.34375 20.625 0 25 0C29.375 0 33.2812 2.34375 35.1562 6.09375C36.25 5.78125 37.1875 5.625 38.2812 5.625C44.6875 5.625 49.8438 10.7812 49.8438 17.1875C49.8438 23.125 45.4688 27.9688 39.6875 28.75V48.4375C39.8438 49.375 39.2188 50 38.2812 50ZM14.5312 47.0312H36.875V27.5C36.875 26.7188 37.5 26.0938 38.2812 26.0938C43.125 26.0938 47.0312 22.1875 47.0312 17.3438C47.0312 12.5 43.125 8.59375 38.2812 8.59375C37.1875 8.59375 35.9375 8.75 35 9.21875C34.6875 9.375 34.2188 9.375 33.9062 9.21875C33.5938 9.0625 33.2812 8.75 33.125 8.4375C31.875 5.15625 28.5938 2.96875 25 2.96875C21.4062 2.96875 18.2812 5.15625 16.875 8.4375C16.7188 8.75 16.4062 9.0625 16.0938 9.21875C15.7812 9.375 15.3125 9.375 15 9.21875C13.9063 8.75 12.8125 8.59375 11.7188 8.59375C6.875 8.59375 2.96875 12.5 2.96875 17.3438C2.96875 22.1875 6.875 26.0938 11.7188 26.0938C12.1875 26.0938 12.6562 26.0938 12.9688 25.9375C13.4375 25.9375 13.9063 25.9375 14.2188 26.25C14.5313 26.5625 14.6875 26.875 14.6875 27.3438V47.0312H14.5312Z" fill="white"/>
<path d="M38.2812 43.4375H13.125C12.3437 43.4375 11.7188 42.8125 11.7188 42.0312C11.7188 41.25 12.3437 40.625 13.125 40.625H38.4375C39.2188 40.625 39.8438 41.25 39.8438 42.0312C39.8438 42.8125 39.2188 43.4375 38.2812 43.4375Z" fill="white"/>
</g>
<defs>
<clipPath id="clip0_332_889">
<rect width="50" height="50" fill="white"/>
</clipPath>
</defs>
</svg>
