<svg width="30" height="30" viewBox="0 0 30 30" fill="none" xmlns="http://www.w3.org/2000/svg">
<g clip-path="url(#clip0_134_1456)">
<path d="M25.6741 29.5298C25.3919 29.5298 25.2038 29.4357 25.0158 29.2476L18.7148 22.9467L16.1756 25.0156C15.7995 25.2978 15.2352 25.2978 14.9531 24.9216L11.6615 21.6301C11.2854 21.2539 11.2854 20.6896 11.6615 20.3135C12.0377 19.9373 12.602 19.9373 12.9781 20.3135L15.7054 23.0407L18.2446 20.9718C18.6208 20.6896 19.185 20.6896 19.4672 21.0658L25.6741 27.2727L27.0847 25.862L20.8778 19.6551C20.5017 19.279 20.5017 18.7147 20.8778 18.3385C21.254 17.9624 21.8183 17.9624 22.1944 18.3385L29.0596 25.2037C29.4358 25.5799 29.4358 26.1442 29.0596 26.5203L26.3324 29.2476C26.1443 29.4357 25.8622 29.5298 25.6741 29.5298Z" fill="#C89B73"/>
<path d="M9.49829 19.0909C9.21616 19.0909 9.02807 18.9969 8.83998 18.8088L2.44499 12.4138C-0.752498 9.2163 -0.752498 3.94984 2.44499 0.658307L2.82117 0.282132C3.19735 -0.0940439 3.76161 -0.0940439 4.13778 0.282132L12.0375 8.18182C12.4136 8.55799 12.4136 9.12226 12.0375 9.49843C11.6613 9.87461 11.097 9.87461 10.7209 9.49843L3.47948 2.25705C2.44499 3.38558 1.88073 4.98433 1.88073 6.58307C1.88073 8.27586 2.53904 9.96865 3.76161 11.0972L10.1566 17.4922C10.5328 17.8683 10.5328 18.4326 10.1566 18.8088C9.96851 18.9969 9.68637 19.0909 9.49829 19.0909Z" fill="#C89B73"/>
<path d="M19.2789 20.2194C16.9278 20.2194 14.5768 19.373 12.884 17.5861C11.1912 15.8933 10.2507 13.5422 10.2507 11.1911C10.2507 8.74601 11.1912 6.48895 12.884 4.79616C14.6708 3.00933 17.4921 1.59867 20.4075 0.84632C23.699 -7.49528e-05 26.5203 0.470144 28.2131 2.16293C29.9059 3.85572 30.3761 6.67704 29.5297 10.0626C28.8714 12.978 27.3667 15.7993 25.5799 17.5861C23.8871 19.373 21.536 20.2194 19.2789 20.2194ZM23.3228 2.25698C20.1253 2.25698 16.0815 4.04381 14.1065 6.01873C12.6959 7.42939 11.9435 9.21623 11.9435 11.1911C11.9435 13.1661 12.6959 14.9529 14.1065 16.3636C16.9278 19.1849 21.536 19.1849 24.3573 16.3636C27.2727 13.4482 29.6238 6.30087 26.8965 3.57359C26.0501 2.63315 24.8275 2.25698 23.3228 2.25698Z" fill="#C89B73"/>
<path d="M4.04393 29.9999C3.7618 29.9999 3.57371 29.9058 3.38562 29.7177L0.658352 26.9905C0.282177 26.6143 0.282177 26.05 0.658352 25.6738L11.4734 14.8588C11.8496 14.4826 12.4138 14.4826 12.79 14.8588C13.1662 15.235 13.1662 15.7992 12.79 16.1754L2.63327 26.3321L4.04393 27.7428L14.2007 17.5861C14.5768 17.2099 15.1411 17.2099 15.5173 17.5861C15.8935 17.9622 15.8935 18.5265 15.5173 18.9027L4.70224 29.7177C4.6082 29.9058 4.32606 29.9999 4.04393 29.9999Z" fill="#C89B73"/>
</g>
<defs>
<clipPath id="clip0_134_1456">
<rect width="30" height="30" fill="white"/>
</clipPath>
</defs>
</svg>
