<svg width="29" height="29" viewBox="0 0 29 29" fill="none" xmlns="http://www.w3.org/2000/svg">
<g clip-path="url(#clip0_315_812)">
<path d="M22.7606 17.8403C22.171 17.2263 21.4599 16.8981 20.7061 16.8981C19.9585 16.8981 19.2412 17.2202 18.6273 17.8342L16.7065 19.7489C16.5485 19.6638 16.3904 19.5848 16.2385 19.5057C16.0197 19.3963 15.813 19.293 15.6367 19.1836C13.8375 18.0408 12.2024 16.5516 10.6342 14.6248C9.87435 13.6644 9.36376 12.8559 8.99298 12.0353C9.49141 11.5795 9.95337 11.1053 10.4032 10.6495C10.5734 10.4793 10.7436 10.303 10.9138 10.1328C12.1902 8.85632 12.1902 7.20298 10.9138 5.92651L9.25435 4.2671C9.06592 4.07867 8.87141 3.88416 8.68906 3.68965C8.32435 3.31278 7.94141 2.92376 7.54631 2.55906C6.9567 1.97553 6.2516 1.66553 5.51003 1.66553C4.76847 1.66553 4.05121 1.97553 3.44337 2.55906C3.43729 2.56514 3.43729 2.56514 3.43121 2.57121L1.36454 4.65612C0.586501 5.43416 0.142775 6.38239 0.0455197 7.48259C-0.100363 9.2575 0.422383 10.9108 0.82356 11.9928C1.80827 14.6491 3.27925 17.1108 5.47356 19.7489C8.13592 22.9279 11.3393 25.4383 14.9985 27.2071C16.3965 27.8697 18.2626 28.6538 20.3475 28.7875C20.4751 28.7936 20.6089 28.7997 20.7304 28.7997C22.1346 28.7997 23.3138 28.2952 24.2377 27.2922C24.2438 27.2801 24.2559 27.274 24.262 27.2618C24.5781 26.8789 24.9428 26.5324 25.3257 26.1616C25.5871 25.9124 25.8546 25.651 26.1159 25.3775C26.7177 24.7514 27.0338 24.022 27.0338 23.2744C27.0338 22.5206 26.7116 21.7973 26.0977 21.1895L22.7606 17.8403ZM24.9367 24.2408C24.9306 24.2408 24.9306 24.2469 24.9367 24.2408C24.6997 24.4961 24.4565 24.7271 24.1952 24.9824C23.8001 25.3593 23.3989 25.7544 23.022 26.1981C22.4081 26.8546 21.6848 27.1646 20.7365 27.1646C20.6453 27.1646 20.5481 27.1646 20.4569 27.1585C18.6516 27.043 16.974 26.3379 15.7157 25.7361C12.2753 24.0706 9.25435 21.7061 6.74396 18.7095C4.67121 16.2112 3.28533 13.9014 2.36748 11.4214C1.80219 9.90789 1.59552 8.72867 1.6867 7.61632C1.74748 6.90514 2.02101 6.31553 2.52552 5.81102L4.59827 3.73827C4.89611 3.45867 5.21219 3.30671 5.52219 3.30671C5.90513 3.30671 6.21513 3.53769 6.40964 3.7322C6.41572 3.73827 6.4218 3.74435 6.42788 3.75043C6.79866 4.0969 7.15121 4.45553 7.522 4.83847C7.71043 5.03298 7.90494 5.22749 8.09945 5.42808L9.75886 7.08749C10.4032 7.73181 10.4032 8.3275 9.75886 8.97181C9.58259 9.14808 9.41239 9.32436 9.23612 9.49455C8.72553 10.0173 8.23925 10.5036 7.71043 10.9777C7.69827 10.9899 7.68612 10.9959 7.68004 11.0081C7.15729 11.5308 7.25455 12.0414 7.36396 12.3879C7.37004 12.4061 7.37611 12.4244 7.38219 12.4426C7.81376 13.4881 8.42161 14.4728 9.34553 15.6459L9.35161 15.652C11.0293 17.7187 12.7981 19.3295 14.7493 20.5634C14.9985 20.7214 15.2538 20.8491 15.4969 20.9706C15.7157 21.0801 15.9224 21.1834 16.0987 21.2928C16.123 21.305 16.1473 21.3232 16.1716 21.3354C16.3783 21.4387 16.5728 21.4873 16.7734 21.4873C17.2779 21.4873 17.594 21.1712 17.6973 21.0679L19.7761 18.9891C19.9828 18.7824 20.311 18.5332 20.694 18.5332C21.0708 18.5332 21.3808 18.7702 21.5693 18.9769C21.5753 18.983 21.5753 18.983 21.5814 18.9891L24.9306 22.3383C25.5567 22.9583 25.5567 23.5965 24.9367 24.2408Z" fill="white"/>
<path d="M15.5641 6.85112C17.1567 7.11857 18.6033 7.87229 19.7582 9.0272C20.9131 10.1821 21.6608 11.6288 21.9343 13.2213C22.0012 13.6225 22.3477 13.9021 22.7428 13.9021C22.7914 13.9021 22.8339 13.896 22.8826 13.8899C23.3324 13.817 23.6302 13.3915 23.5573 12.9417C23.229 11.0148 22.3173 9.25818 20.9253 7.86622C19.5333 6.47425 17.7767 5.56249 15.8498 5.23425C15.4 5.16131 14.9806 5.45915 14.9016 5.90288C14.8226 6.34661 15.1143 6.77818 15.5641 6.85112Z" fill="white"/>
<path d="M28.766 12.7045C28.225 9.53159 26.7297 6.64433 24.4321 4.34668C22.1344 2.04903 19.2472 0.553735 16.0742 0.0127545C15.6305 -0.0662652 15.2111 0.237657 15.1321 0.681383C15.0591 1.13119 15.357 1.5506 15.8068 1.62962C18.6393 2.10982 21.2227 3.45315 23.2772 5.50158C25.3317 7.55609 26.6689 10.1394 27.1491 12.972C27.216 13.3732 27.5625 13.6528 27.9576 13.6528C28.0062 13.6528 28.0488 13.6467 28.0974 13.6406C28.5411 13.5737 28.845 13.1483 28.766 12.7045Z" fill="white"/>
</g>
<defs>
<clipPath id="clip0_315_812">
<rect width="28.8" height="28.8" fill="white"/>
</clipPath>
</defs>
</svg>
