<svg width="50" height="50" viewBox="0 0 50 50" fill="none" xmlns="http://www.w3.org/2000/svg">
<rect width="50" height="50" rx="25" fill="#C89B73"/>
<path d="M25.6841 13C25.7805 13.0383 25.8625 13.092 25.951 13.1457C26.2306 13.6622 26.0723 14.7576 26.0689 15.3622C27.0181 15.3372 27.9581 15.3067 28.9058 15.389C28.4795 16.4054 28.3105 17.3978 27.9822 18.433C27.3072 18.5321 26.6303 18.5202 25.9494 18.5264C25.3568 18.5391 24.4029 18.6735 23.8513 18.4291C23.6692 18.3485 23.5308 18.2044 23.4423 18.0271C23.2534 17.6486 23.2045 17.1464 23.0845 16.7371C22.9475 16.2698 22.7628 15.8112 22.5918 15.3552C23.5235 15.2872 24.4572 15.2986 25.3907 15.2985C25.4089 14.6968 25.2855 14.0784 25.3559 13.4806C25.3879 13.2091 25.4782 13.1522 25.6841 13Z" fill="white"/>
<path d="M26.3761 16.2968L27.6064 16.2734C27.4433 16.5985 27.3054 16.8651 27.0592 17.141C26.7174 17.2383 26.3707 17.2449 26.0179 17.2646C25.9966 16.9815 25.9559 16.7026 26.0243 16.4239C26.1538 16.2853 26.1837 16.311 26.3761 16.2968Z" fill="#C89B73"/>
<path d="M23.8438 16.292C24.3777 16.2705 24.9144 16.2901 25.4487 16.2983C25.4511 16.6204 25.4384 16.9433 25.4313 17.2654C25.0661 17.2847 24.7029 17.2756 24.3375 17.2676C24.1174 16.964 23.9136 16.6662 23.8438 16.292Z" fill="#C89B73"/>
<path d="M11.3935 30.851C13.1818 30.744 15.039 30.8394 16.8341 30.842L27.4865 30.8536L35.2272 30.8452C36.4584 30.8395 37.7713 30.7245 38.9942 30.8315C39.2417 30.8532 39.5268 30.8989 39.6712 31.1288C39.7694 31.2854 39.7628 31.4849 39.7215 31.658C39.6519 31.9503 39.4877 32.0574 39.2443 32.2012C39.1045 32.2334 38.9728 32.2421 38.8301 32.2485C36.9823 32.3306 35.1006 32.2264 33.2498 32.2185L22.0322 32.2036L14.8754 32.2325C13.9308 32.2375 12.2922 32.3783 11.4299 32.1824C11.3079 32.1548 11.1963 32.1078 11.1132 32.0086C10.9858 31.8566 10.9885 31.6645 11.0138 31.4805C11.057 31.1653 11.152 31.0413 11.3935 30.851Z" fill="white"/>
<path d="M19.0777 32.7438C25.5003 32.7076 31.9228 32.7201 38.3451 32.7813C38.3597 33.7291 38.2428 34.6239 37.549 35.3375C36.5345 36.381 35.1419 36.3085 33.8112 36.3118L31.5087 36.3134L20.0373 36.3181C18.629 36.3184 15.7884 36.4937 14.5776 36.2009C13.7333 35.9967 13.1464 35.5894 12.6984 34.8555C12.4169 34.3944 11.9831 33.4891 12.1167 32.9502C12.1539 32.9137 12.1828 32.8665 12.2281 32.8407C12.4778 32.6986 18.3069 32.751 19.0777 32.7438Z" fill="white"/>
<path d="M25.0439 18.7873C25.8453 18.7535 26.2873 18.9988 27.0368 19.1747C27.5794 19.3018 28.1338 19.3708 28.6739 19.5121C30.4453 19.9755 32.1287 20.9125 33.5263 22.0868C35.9812 24.1498 37.7169 27.0901 38.0036 30.3151L25.7716 30.3203L12.7617 30.3175C12.764 29.4924 13.0105 28.6625 13.2458 27.8779C13.2818 27.7609 13.3195 27.6445 13.359 27.5287C13.3985 27.4128 13.4397 27.2976 13.4827 27.183C13.5257 27.0684 13.5704 26.9545 13.6169 26.8413C13.6635 26.7282 13.7116 26.6157 13.7615 26.5039C13.8115 26.3921 13.8631 26.2811 13.9164 26.1711C13.9696 26.0609 14.0245 25.9515 14.0811 25.8429C14.1378 25.7344 14.196 25.6268 14.256 25.5201C14.3158 25.4134 14.3774 25.3076 14.4405 25.2027C14.5036 25.0978 14.5683 24.994 14.6345 24.8911C14.7008 24.7883 14.7687 24.6864 14.8381 24.5856C14.9075 24.4848 14.9785 24.3851 15.0509 24.2864C15.1233 24.1877 15.1972 24.0901 15.2725 23.9938C15.348 23.8974 15.4248 23.8022 15.5031 23.7081C15.5814 23.614 15.6612 23.5213 15.7423 23.4297C15.8235 23.3379 15.9059 23.2476 15.9898 23.1584C16.0738 23.0693 16.1589 22.9816 16.2455 22.895C16.3321 22.8085 16.42 22.7234 16.5091 22.6395C16.5983 22.5556 16.6887 22.4732 16.7803 22.3922C16.8721 22.311 16.965 22.2314 17.059 22.1531C17.1531 22.0749 17.2484 21.9981 17.3448 21.9228C17.4413 21.8474 17.5389 21.7735 17.6376 21.7011C17.7363 21.6287 17.836 21.5579 17.9369 21.4886C18.0377 21.4193 18.1396 21.3515 18.2426 21.2853C18.3454 21.2191 18.4494 21.1544 18.5543 21.0913C18.6592 21.0282 18.765 20.9668 18.8717 20.907C18.9785 20.8471 19.0861 20.7889 19.1947 20.7324C19.3032 20.6757 19.4126 20.6209 19.5229 20.5678C19.6331 20.5145 19.744 20.463 19.8558 20.4132C19.9676 20.3632 20.0802 20.3151 20.1933 20.2688C20.3066 20.2224 20.4205 20.1777 20.5351 20.1347C20.6498 20.0918 20.765 20.0506 20.8809 20.0111C20.9967 19.9718 21.1131 19.9341 21.2302 19.8982C22.4947 19.5008 23.8708 19.4188 25.0439 18.7873Z" fill="white"/>
</svg>
