<svg width="171" height="50" viewBox="0 0 171 50" fill="none" xmlns="http://www.w3.org/2000/svg">
<path d="M75.16 35.39C73.66 35.39 72.32 35.18 71.14 34.76C69.96 34.32 68.96 33.68 68.14 32.84C67.32 31.98 66.69 30.92 66.25 29.66C65.81 28.4 65.59 26.96 65.59 25.34C65.59 23.66 65.81 22.17 66.25 20.87C66.71 19.57 67.35 18.47 68.17 17.57C68.99 16.65 69.97 15.96 71.11 15.5C72.25 15.04 73.52 14.81 74.92 14.81C76 14.81 77 14.95 77.92 15.23C78.84 15.51 79.63 15.93 80.29 16.49C80.97 17.03 81.5 17.69 81.88 18.47C82.26 19.23 82.46 20.1 82.48 21.08L78.94 22.01C78.96 21.11 78.77 20.36 78.37 19.76C77.97 19.16 77.45 18.71 76.81 18.41C76.19 18.11 75.52 17.96 74.8 17.96C74.16 17.96 73.52 18.09 72.88 18.35C72.26 18.61 71.7 19.02 71.2 19.58C70.7 20.14 70.3 20.88 70 21.8C69.7 22.7 69.55 23.81 69.55 25.13C69.55 26.81 69.79 28.17 70.27 29.21C70.77 30.25 71.45 31.02 72.31 31.52C73.19 32 74.18 32.24 75.28 32.24C76.4 32.24 77.29 32.02 77.95 31.58C78.61 31.12 79.09 30.52 79.39 29.78C79.69 29.02 79.86 28.2 79.9 27.32L83.23 27.89C83.21 28.93 83.05 29.91 82.75 30.83C82.45 31.75 81.98 32.55 81.34 33.23C80.72 33.91 79.9 34.44 78.88 34.82C77.86 35.2 76.62 35.39 75.16 35.39ZM89.4627 35.39C88.6027 35.39 87.8327 35.23 87.1527 34.91C86.4727 34.57 85.9327 34.07 85.5327 33.41C85.1527 32.75 84.9627 31.93 84.9627 30.95C84.9627 30.13 85.1127 29.43 85.4127 28.85C85.7327 28.27 86.2027 27.8 86.8227 27.44C87.4427 27.06 88.2127 26.75 89.1327 26.51C90.0527 26.25 91.1327 26.03 92.3727 25.85C93.0527 25.75 93.6027 25.65 94.0227 25.55C94.4627 25.45 94.7827 25.3 94.9827 25.1C95.1827 24.88 95.2827 24.56 95.2827 24.14C95.2827 23.52 95.0627 22.99 94.6227 22.55C94.2027 22.09 93.5127 21.86 92.5527 21.86C91.9727 21.86 91.4127 21.96 90.8727 22.16C90.3527 22.36 89.9027 22.68 89.5227 23.12C89.1427 23.54 88.8827 24.1 88.7427 24.8L85.3527 23.75C85.5727 22.95 85.8927 22.26 86.3127 21.68C86.7327 21.08 87.2527 20.57 87.8727 20.15C88.4927 19.73 89.2027 19.42 90.0027 19.22C90.8027 19.02 91.6827 18.92 92.6427 18.92C94.1027 18.92 95.3027 19.16 96.2427 19.64C97.1827 20.1 97.8827 20.83 98.3427 21.83C98.8027 22.81 99.0327 24.08 99.0327 25.64V28.58C99.0327 29.26 99.0427 29.97 99.0627 30.71C99.1027 31.43 99.1427 32.16 99.1827 32.9C99.2427 33.62 99.3127 34.32 99.3927 35H96.0027C95.9227 34.44 95.8527 33.84 95.7927 33.2C95.7327 32.56 95.6827 31.91 95.6427 31.25H95.1627C94.8827 32.01 94.4827 32.71 93.9627 33.35C93.4427 33.97 92.8027 34.47 92.0427 34.85C91.3027 35.21 90.4427 35.39 89.4627 35.39ZM90.9627 32.6C91.3627 32.6 91.7627 32.53 92.1627 32.39C92.5827 32.25 92.9927 32.04 93.3927 31.76C93.7927 31.48 94.1627 31.14 94.5027 30.74C94.8427 30.32 95.1327 29.83 95.3727 29.27L95.3127 26.6L96.0327 26.72C95.6927 27 95.2727 27.22 94.7727 27.38C94.2727 27.54 93.7427 27.66 93.1827 27.74C92.6427 27.82 92.0927 27.92 91.5327 28.04C90.9927 28.14 90.5027 28.28 90.0627 28.46C89.6227 28.62 89.2727 28.86 89.0127 29.18C88.7527 29.48 88.6227 29.9 88.6227 30.44C88.6227 31.12 88.8427 31.65 89.2827 32.03C89.7227 32.41 90.2827 32.6 90.9627 32.6ZM108.008 35.36C106.348 35.36 105.128 34.92 104.348 34.04C103.568 33.14 103.178 31.75 103.178 29.87V22.34H100.868L100.928 19.34H102.458C103.038 19.34 103.468 19.25 103.748 19.07C104.028 18.89 104.198 18.57 104.258 18.11L104.618 15.83H106.808V19.31H110.948V22.46H106.808V29.72C106.808 30.46 106.978 31 107.318 31.34C107.678 31.68 108.208 31.85 108.908 31.85C109.288 31.85 109.658 31.81 110.018 31.73C110.398 31.63 110.748 31.47 111.068 31.25V34.85C110.448 35.05 109.878 35.18 109.358 35.24C108.858 35.32 108.408 35.36 108.008 35.36ZM120.541 35.39C119.281 35.39 118.151 35.21 117.151 34.85C116.171 34.49 115.341 33.97 114.661 33.29C113.981 32.59 113.461 31.75 113.101 30.77C112.741 29.79 112.561 28.68 112.561 27.44C112.561 26.2 112.731 25.06 113.071 24.02C113.431 22.98 113.941 22.08 114.601 21.32C115.261 20.56 116.061 19.97 117.001 19.55C117.961 19.13 119.051 18.92 120.271 18.92C121.411 18.92 122.431 19.11 123.331 19.49C124.231 19.87 124.991 20.44 125.611 21.2C126.231 21.94 126.691 22.87 126.991 23.99C127.291 25.09 127.391 26.37 127.291 27.83L115.021 27.92V25.73L125.101 25.64L123.781 26.87C123.901 25.73 123.811 24.8 123.511 24.08C123.211 23.34 122.781 22.8 122.221 22.46C121.661 22.1 121.021 21.92 120.301 21.92C119.481 21.92 118.761 22.14 118.141 22.58C117.521 23 117.041 23.62 116.701 24.44C116.381 25.24 116.221 26.22 116.221 27.38C116.221 29.12 116.601 30.42 117.361 31.28C118.141 32.14 119.201 32.57 120.541 32.57C121.141 32.57 121.641 32.5 122.041 32.36C122.461 32.2 122.811 32 123.091 31.76C123.371 31.5 123.591 31.21 123.751 30.89C123.931 30.57 124.071 30.23 124.171 29.87L127.471 30.62C127.311 31.36 127.051 32.02 126.691 32.6C126.331 33.18 125.861 33.68 125.281 34.1C124.721 34.52 124.051 34.84 123.271 35.06C122.491 35.28 121.581 35.39 120.541 35.39ZM130.146 35V27.14V19.31H133.326L133.266 24.71H133.806C133.986 23.43 134.266 22.37 134.646 21.53C135.026 20.67 135.556 20.03 136.236 19.61C136.916 19.17 137.756 18.95 138.756 18.95C138.956 18.95 139.166 18.96 139.386 18.98C139.626 19 139.886 19.05 140.166 19.13L140.016 23.12C139.696 23 139.366 22.92 139.026 22.88C138.706 22.82 138.406 22.79 138.126 22.79C137.346 22.79 136.666 22.99 136.086 23.39C135.526 23.79 135.066 24.36 134.706 25.1C134.366 25.82 134.106 26.68 133.926 27.68V35H130.146ZM142.202 35V19.31H145.982V35H142.202ZM144.092 16.85C143.332 16.85 142.742 16.69 142.322 16.37C141.922 16.03 141.722 15.55 141.722 14.93C141.722 14.31 141.922 13.84 142.322 13.52C142.742 13.18 143.332 13.01 144.092 13.01C144.892 13.01 145.492 13.17 145.892 13.49C146.292 13.81 146.492 14.29 146.492 14.93C146.492 15.55 146.282 16.03 145.862 16.37C145.462 16.69 144.872 16.85 144.092 16.85ZM148.01 35L153.26 27.17L148.01 19.31H152.39L155.51 25.37H155.99L159.11 19.31H163.49L158.24 27.17L163.55 35H159.2L155.99 28.91H155.51L152.42 35H148.01Z" fill="white"/>
<path d="M167.16 35.36C166.34 35.36 165.72 35.18 165.3 34.82C164.88 34.46 164.67 33.9 164.67 33.14C164.67 32.36 164.88 31.79 165.3 31.43C165.72 31.07 166.34 30.89 167.16 30.89C168.02 30.89 168.66 31.07 169.08 31.43C169.52 31.79 169.74 32.36 169.74 33.14C169.74 34.62 168.88 35.36 167.16 35.36Z" fill="#C89B73"/>
<rect width="50" height="50" rx="25" fill="#C89B73"/>
<path d="M25.6841 13C25.7805 13.0383 25.8625 13.092 25.951 13.1457C26.2306 13.6622 26.0723 14.7576 26.0689 15.3622C27.0181 15.3372 27.9581 15.3067 28.9058 15.389C28.4795 16.4054 28.3105 17.3978 27.9822 18.433C27.3072 18.5321 26.6303 18.5202 25.9494 18.5264C25.3568 18.5391 24.4029 18.6735 23.8513 18.4291C23.6692 18.3485 23.5308 18.2044 23.4423 18.0271C23.2534 17.6486 23.2045 17.1464 23.0845 16.7371C22.9475 16.2698 22.7628 15.8112 22.5918 15.3552C23.5235 15.2872 24.4572 15.2986 25.3907 15.2985C25.4089 14.6968 25.2855 14.0784 25.3559 13.4806C25.3879 13.2091 25.4782 13.1522 25.6841 13Z" fill="white"/>
<path d="M26.3761 16.2968L27.6064 16.2734C27.4433 16.5985 27.3054 16.8651 27.0592 17.141C26.7174 17.2383 26.3707 17.2449 26.0179 17.2646C25.9966 16.9815 25.9559 16.7026 26.0243 16.4239C26.1538 16.2853 26.1837 16.311 26.3761 16.2968Z" fill="#C89B73"/>
<path d="M23.8438 16.292C24.3777 16.2705 24.9144 16.2901 25.4487 16.2983C25.4511 16.6204 25.4384 16.9433 25.4313 17.2654C25.0661 17.2847 24.7029 17.2756 24.3375 17.2676C24.1174 16.964 23.9136 16.6662 23.8438 16.292Z" fill="#C89B73"/>
<path d="M11.3935 30.851C13.1818 30.744 15.039 30.8394 16.8341 30.842L27.4865 30.8536L35.2272 30.8452C36.4584 30.8395 37.7713 30.7245 38.9942 30.8315C39.2417 30.8532 39.5268 30.8989 39.6712 31.1288C39.7694 31.2854 39.7628 31.4849 39.7215 31.658C39.6519 31.9503 39.4877 32.0574 39.2443 32.2012C39.1045 32.2334 38.9728 32.2421 38.8301 32.2485C36.9823 32.3306 35.1006 32.2264 33.2498 32.2185L22.0322 32.2036L14.8754 32.2325C13.9308 32.2375 12.2922 32.3783 11.4299 32.1824C11.3079 32.1548 11.1963 32.1078 11.1132 32.0086C10.9858 31.8566 10.9885 31.6645 11.0138 31.4805C11.057 31.1653 11.152 31.0413 11.3935 30.851Z" fill="white"/>
<path d="M19.0777 32.7438C25.5003 32.7076 31.9228 32.7201 38.3451 32.7813C38.3597 33.7291 38.2428 34.6239 37.549 35.3375C36.5345 36.381 35.1419 36.3085 33.8112 36.3118L31.5087 36.3134L20.0373 36.3181C18.629 36.3184 15.7884 36.4937 14.5776 36.2009C13.7333 35.9967 13.1464 35.5894 12.6984 34.8555C12.4169 34.3944 11.9831 33.4891 12.1167 32.9502C12.1539 32.9137 12.1828 32.8665 12.2281 32.8407C12.4778 32.6986 18.3069 32.751 19.0777 32.7438Z" fill="white"/>
<path d="M25.0439 18.7873C25.8453 18.7535 26.2873 18.9988 27.0368 19.1747C27.5794 19.3018 28.1338 19.3708 28.6739 19.5121C30.4453 19.9755 32.1287 20.9125 33.5263 22.0868C35.9812 24.1498 37.7169 27.0901 38.0036 30.3151L25.7716 30.3203L12.7617 30.3175C12.764 29.4924 13.0105 28.6625 13.2458 27.8779C13.2818 27.7609 13.3195 27.6445 13.359 27.5287C13.3985 27.4128 13.4397 27.2976 13.4827 27.183C13.5257 27.0684 13.5704 26.9545 13.6169 26.8413C13.6635 26.7282 13.7116 26.6157 13.7615 26.5039C13.8115 26.3921 13.8631 26.2811 13.9164 26.1711C13.9696 26.0609 14.0245 25.9515 14.0811 25.8429C14.1378 25.7344 14.196 25.6268 14.256 25.5201C14.3158 25.4134 14.3774 25.3076 14.4405 25.2027C14.5036 25.0978 14.5683 24.994 14.6345 24.8911C14.7008 24.7883 14.7687 24.6864 14.8381 24.5856C14.9075 24.4848 14.9785 24.3851 15.0509 24.2864C15.1233 24.1877 15.1972 24.0901 15.2725 23.9938C15.348 23.8974 15.4248 23.8022 15.5031 23.7081C15.5814 23.614 15.6612 23.5213 15.7423 23.4297C15.8235 23.3379 15.9059 23.2476 15.9898 23.1584C16.0738 23.0693 16.1589 22.9816 16.2455 22.895C16.3321 22.8085 16.42 22.7234 16.5091 22.6395C16.5983 22.5556 16.6887 22.4732 16.7803 22.3922C16.8721 22.311 16.965 22.2314 17.059 22.1531C17.1531 22.0749 17.2484 21.9981 17.3448 21.9228C17.4413 21.8474 17.5389 21.7735 17.6376 21.7011C17.7363 21.6287 17.836 21.5579 17.9369 21.4886C18.0377 21.4193 18.1396 21.3515 18.2426 21.2853C18.3454 21.2191 18.4494 21.1544 18.5543 21.0913C18.6592 21.0282 18.765 20.9668 18.8717 20.907C18.9785 20.8471 19.0861 20.7889 19.1947 20.7324C19.3032 20.6757 19.4126 20.6209 19.5229 20.5678C19.6331 20.5145 19.744 20.463 19.8558 20.4132C19.9676 20.3632 20.0802 20.3151 20.1933 20.2688C20.3066 20.2224 20.4205 20.1777 20.5351 20.1347C20.6498 20.0918 20.765 20.0506 20.8809 20.0111C20.9967 19.9718 21.1131 19.9341 21.2302 19.8982C22.4947 19.5008 23.8708 19.4188 25.0439 18.7873Z" fill="white"/>
</svg>
