<svg width="50" height="50" viewBox="0 0 50 50" fill="none" xmlns="http://www.w3.org/2000/svg">
<path d="M27.6389 38.7307V23.2641C27.6389 13.0529 33.5244 9.41059 41.5082 7.36899C42.7249 7.05787 43.9839 7.70378 44.4287 8.87817C44.9528 10.2617 44.1369 11.7607 42.7064 12.1382C36.8986 13.6704 35.0423 17.4428 35.9481 23.2641H44.7722C46.9691 23.2641 48.75 25.045 48.75 27.2418V38.7307C48.75 40.9276 46.9691 42.7085 44.7722 42.7085H31.6167C29.4198 42.7085 27.6389 40.9276 27.6389 38.7307Z" fill="#191E24" fill-opacity="0.1"/>
<path d="M1.24997 38.7307V23.2641C1.24997 13.0529 7.13545 9.41059 15.1193 7.36899C16.336 7.05787 17.595 7.70378 18.0398 8.87817C18.5639 10.2617 17.748 11.7607 16.3175 12.1382C10.5097 13.6704 8.65335 17.4428 9.55915 23.2641H18.3833C20.5802 23.2641 22.3611 25.045 22.3611 27.2418V38.7307C22.3611 40.9276 20.5802 42.7085 18.3833 42.7085H5.22774C3.03088 42.7085 1.24997 40.9276 1.24997 38.7307Z" fill="#191E24" fill-opacity="0.1"/>
</svg>
